<?xml version="1.0" encoding="UTF-8" standalone="no"?>
<!-- Generated by Graphviz version 2.20.2 (Wed Jul &#160;9 19:59:08 GMT 2008)
     For user: radu -->

<!-- Title: G Pages: 1 -->

<svg
   xmlns:dc="http://purl.org/dc/elements/1.1/"
   xmlns:cc="http://creativecommons.org/ns#"
   xmlns:rdf="http://www.w3.org/1999/02/22-rdf-syntax-ns#"
   xmlns:svg="http://www.w3.org/2000/svg"
   xmlns="http://www.w3.org/2000/svg"
   xmlns:sodipodi="http://sodipodi.sourceforge.net/DTD/sodipodi-0.dtd"
   xmlns:inkscape="http://www.inkscape.org/namespaces/inkscape"
   width="786"
   height="452"
   viewBox="0 0 484.53374 278.7397"
   id="svg4998"
   version="1.1"
   inkscape:version="0.48.1 "
   sodipodi:docname="oog-charbuffer-color.eps">
  <metadata
     id="metadata5353">
    <rdf:RDF>
      <cc:Work
         rdf:about="">
        <dc:format>image/svg+xml</dc:format>
        <dc:type
           rdf:resource="http://purl.org/dc/dcmitype/StillImage" />
        <dc:title></dc:title>
      </cc:Work>
    </rdf:RDF>
  </metadata>
  <defs
     id="defs5351" />
  <sodipodi:namedview
     pagecolor="#ffffff"
     bordercolor="#666666"
     borderopacity="1"
     objecttolerance="10"
     gridtolerance="10"
     guidetolerance="10"
     inkscape:pageopacity="0"
     inkscape:pageshadow="2"
     inkscape:window-width="1600"
     inkscape:window-height="840"
     id="namedview5349"
     showgrid="false"
     inkscape:zoom="1.8856181"
     inkscape:cx="181.45513"
     inkscape:cy="159.70008"
     inkscape:window-x="-4"
     inkscape:window-y="-4"
     inkscape:window-maximized="1"
     inkscape:current-layer="graph0"
     fit-margin-top="0"
     fit-margin-left="0"
     fit-margin-right="0"
     fit-margin-bottom="0" />
  <g
     id="graph0"
     class="graph"
     transform="matrix(0.548571,0,0,0.548571,0.8228565,295.18213)">
    <title
       id="title5001">G</title>
    <!-- DS -->
    <g
       id="node1"
       class="node">
      <title
         id="title5006">DS</title>
      <polygon
         style="fill:none;stroke:#000000;stroke-dasharray:5, 2"
         points="286,-538 286,-538 176,-538 176,-502 286,-502 "
         id="polygon5008" />
      <text
         x="231"
         y="-515.90002"
         style="font-size:14px;font-weight:bold;text-anchor:middle;font-family:Arial"
         id="text5010">null::SHARED</text>
    </g>
    <!-- Main_DS -->
    <g
       id="node2"
       class="node">
      <title
         id="title5013">Main_DS</title>
      <polygon
         style="fill:#ffffe0;stroke:#000000"
         points="258,-464 258,-464 204,-464 204,-422 258,-422 "
         id="polygon5015" />
      <text
         x="231"
         y="-447.39999"
         style="font-size:14px;font-weight:bold;text-anchor:middle;font-family:Arial"
         id="text5017">m:</text>
      <text
         x="231"
         y="-430.39999"
         style="font-size:14px;font-weight:bold;text-anchor:middle;font-family:Arial"
         id="text5019">Main</text>
    </g>
    <!-- DS&#45;&gt;Main_DS -->
    <g
       id="edge24"
       class="edge">
      <title
         id="title5022">DS-&gt;Main_DS</title>
      <path
         style="fill:none;stroke:#000000;stroke-dasharray:5, 2"
         d="m 231,-502 c 0,8 0,18 0,28"
         id="path5024"
         inkscape:connector-curvature="0" />
      <polygon
         style="fill:#000000;stroke:#000000"
         points="231,-464 227.5,-474 234.5,-474 234.5,-474 "
         id="polygon5026" />
    </g>
    <!-- _null__SHARED_m_DATA -->
    <g
       id="node3"
       class="node">
      <title
         id="title5029">_null__SHARED_m_DATA</title>
      <polygon
         style="fill:none;stroke:#000000;stroke-dasharray:5, 2"
         points="223,-384 223,-384 123,-384 123,-348 223,-348 "
         id="polygon5031" />
      <text
         x="173"
         y="-361.89999"
         style="font-size:14px;font-weight:bold;text-anchor:middle;font-family:Arial"
         id="text5033">DATA</text>
    </g>
    <!-- Main_DS&#45;&gt;_null__SHARED_m_DATA -->
    <g
       id="edge14"
       class="edge">
      <title
         id="title5036">Main_DS-&gt;_null__SHARED_m_DATA</title>
      <path
         style="fill:none;stroke:#000000;stroke-dasharray:5, 2"
         d="m 215,-422 c -7,9 -15,20 -22,30"
         id="path5038"
         inkscape:connector-curvature="0" />
      <polygon
         style="fill:#000000;stroke:#000000"
         points="187,-384 190.2,-394.1 195.8,-389.9 195.8,-389.9 "
         id="polygon5040" />
    </g>
    <!-- Client__null__SHARED_m_DATA__null__SHARED_m_DATA -->
    <g
       id="node4"
       class="node">
      <title
         id="title5043">Client__null__SHARED_m_DATA__null__SHARED_m_DATA</title>
      <polygon
         style="fill:#ff756c;fill-opacity:1;stroke:#000000"
         points="204,-310 204,-310 148,-310 148,-268 204,-268 "
         id="polygon5045" />
      <text
         x="176"
         y="-293.39999"
         style="font-size:14px;font-weight:bold;text-anchor:middle;font-family:Arial"
         id="text5047">c:</text>
      <text
         x="176"
         y="-276.39999"
         style="font-size:14px;font-weight:bold;text-anchor:middle;font-family:Arial"
         id="text5049">Client</text>
    </g>
    <!-- Main_DS&#45;&gt;Client__null__SHARED_m_DATA__null__SHARED_m_DATA -->
    <g
       id="edge52"
       class="edge">
      <title
         id="title5052">Main_DS-&gt;Client__null__SHARED_m_DATA__null__SHARED_m_DATA</title>
      <path
         style="fill:none;stroke:#ff0000;stroke-width:3"
         d="m 236,-422 c 3,20 6,50 -4,74 -5,12 -12,22 -21,31"
         id="path5054"
         inkscape:connector-curvature="0" />
      <polygon
         style="fill:#ff0000;stroke:#ff0000"
         points="204,-310 208.596,-319.546 213.546,-314.596 213.546,-314.596 "
         id="polygon5056" />
      <text
         x="281"
         y="-361.39999"
         style="font-size:14px;text-anchor:middle;font-family:Times New Roman"
         id="text5058">cb:CharBuffer</text>
    </g>
    <!-- _null__SHARED_m_COPY -->
    <g
       id="node9"
       class="node"
       transform="translate(-156.92902,-2.9368324)">
      <title
         id="title5061">_null__SHARED_m_COPY</title>
      <polygon
         style="fill:none;stroke:#000000;stroke-dasharray:5, 2"
         points="508,-384 508,-348 610,-348 610,-384 610,-384 "
         id="polygon5063" />
      <text
         x="559"
         y="-361.89999"
         style="font-size:14px;font-weight:bold;text-anchor:middle;font-family:Arial"
         id="text5065">COPY</text>
    </g>
    <!-- Main_DS&#45;&gt;_null__SHARED_m_COPY -->
    <g
       id="edge12"
       class="edge"
       transform="matrix(0.94879783,0.31588396,-0.31588396,0.94879783,-223.38553,-187.84829)">
      <title
         id="title5068">Main_DS-&gt;_null__SHARED_m_COPY</title>
      <path
         style="fill:none;stroke:#000000;stroke-width:1;stroke-dasharray:5, 2"
         d="M 376.52559,-394.1359 C 428.55281,-397.2996 426,-398 498,-380"
         id="path5070"
         inkscape:connector-curvature="0"
         sodipodi:nodetypes="cc" />
      <polygon
         style="fill:#000000;stroke:#000000;stroke-width:1"
         points="497.508,-376.529 498.881,-383.393 498.881,-383.393 508,-378 "
         id="polygon5072" />
    </g>
    <!-- _null__SHARED_m_DATA&#45;&gt;Client__null__SHARED_m_DATA__null__SHARED_m_DATA -->
    <g
       id="edge16"
       class="edge">
      <title
         id="title5075">_null__SHARED_m_DATA-&gt;Client__null__SHARED_m_DATA__null__SHARED_m_DATA</title>
      <path
         style="fill:none;stroke:#000000;stroke-dasharray:5, 2"
         d="m 174,-348 c 0,8 1,18 1,28"
         id="path5077"
         inkscape:connector-curvature="0" />
      <polygon
         style="fill:#000000;stroke:#000000"
         points="175,-310 171.5,-320 178.5,-320 178.5,-320 "
         id="polygon5079" />
    </g>
    <!-- Dup__null__SHARED_m_DATA__null__SHARED_m_DATA -->
    <g
       id="node5"
       class="node">
      <title
         id="title5082">Dup__null__SHARED_m_DATA__null__SHARED_m_DATA</title>
      <polygon
         style="fill:#ffffe0;stroke:#000000"
         points="88,-122 88,-122 34,-122 34,-80 88,-80 "
         id="polygon5084" />
      <text
         x="61"
         y="-105.4"
         style="font-size:14px;font-weight:bold;text-anchor:middle;font-family:Arial"
         id="text5086">dup:</text>
      <text
         x="61"
         y="-88.400002"
         style="font-size:14px;font-weight:bold;text-anchor:middle;font-family:Arial"
         id="text5088">Dup</text>
    </g>
    <!-- _null__SHARED_m_DATA&#45;&gt;Dup__null__SHARED_m_DATA__null__SHARED_m_DATA -->
    <g
       id="edge20"
       class="edge">
      <title
         id="title5091">_null__SHARED_m_DATA-&gt;Dup__null__SHARED_m_DATA__null__SHARED_m_DATA</title>
      <path
         style="fill:none;stroke:#000000;stroke-dasharray:5, 2"
         d="m 161,-348 c -7,11 -16,25 -22,38 -30,62 -55,137 -68,178"
         id="path5093"
         inkscape:connector-curvature="0" />
      <polygon
         style="fill:#000000;stroke:#000000"
         points="68,-122 67.5212,-132.584 74.2259,-130.573 74.2259,-130.573 "
         id="polygon5095" />
    </g>
    <!-- java_nio_CharBuffer__null__SHARED_m_DATA__null__SHARED_m_DATA -->
    <g
       id="node6"
       class="node">
      <title
         id="title5098">java_nio_CharBuffer__null__SHARED_m_DATA__null__SHARED_m_DATA</title>
      <polygon
         style="fill:#ffffe0;stroke:#000000"
         points="307,-216 307,-216 157,-216 157,-174 307,-174 "
         id="polygon5100" />
      <text
         x="232"
         y="-199.39999"
         style="font-size:14px;font-weight:bold;text-anchor:middle;font-family:Arial"
         id="text5102">cb:</text>
      <text
         x="232"
         y="-182.39999"
         style="font-size:14px;font-weight:bold;text-anchor:middle;font-family:Arial"
         id="text5104">CharBuffer</text>
    </g>
    <!-- _null__SHARED_m_DATA&#45;&gt;java_nio_CharBuffer__null__SHARED_m_DATA__null__SHARED_m_DATA -->
    <g
       id="edge6"
       class="edge">
      <title
         id="title5107">_null__SHARED_m_DATA-&gt;java_nio_CharBuffer__null__SHARED_m_DATA__null__SHARED_m_DATA</title>
      <path
         style="fill:none;stroke:#000000;stroke-dasharray:5, 2"
         d="m 190,-348 c 8,11 18,24 23,38 11,27 16,60 17,84"
         id="path5109"
         inkscape:connector-curvature="0" />
      <polygon
         style="fill:#000000;stroke:#000000"
         points="231,-216 226.522,-225.602 233.488,-226.299 233.488,-226.299 "
         id="polygon5111" />
    </g>
    <!-- Client__null__SHARED_m_DATA__null__SHARED_m_DATA&#45;&gt;java_nio_CharBuffer__null__SHARED_m_DATA__null__SHARED_m_DATA -->
    <g
       id="edge32"
       class="edge">
      <title
         id="title5114">Client__null__SHARED_m_DATA__null__SHARED_m_DATA-&gt;java_nio_CharBuffer__null__SHARED_m_DATA__null__SHARED_m_DATA</title>
      <path
         style="fill:none;stroke:#000000"
         d="m 189,-268 c 7,13 17,29 25,43"
         id="path5116"
         inkscape:connector-curvature="0" />
      <polygon
         style="fill:#000000;stroke:#000000"
         points="219,-216 211.084,-223.042 217.203,-226.441 217.203,-226.441 "
         id="polygon5118" />
      <text
         x="212"
         y="-237.39999"
         style="font-size:14px;text-anchor:middle;font-family:Times New Roman"
         id="text5120">f</text>
    </g>
    <!-- Dup__null__SHARED_m_DATA__null__SHARED_m_DATA&#45;&gt;Main_DS -->
    <g
       id="edge30"
       class="edge">
      <title
         id="title5123">Dup__null__SHARED_m_DATA__null__SHARED_m_DATA-&gt;Main_DS</title>
      <path
         style="fill:none;stroke:#0000ff;stroke-width:3"
         d="m 37,-122 c -17,-18 -37,-44 -37,-73 0,-171 0,-171 0,-171 0,-40 128,-64 194,-73"
         id="path5125"
         inkscape:connector-curvature="0" />
      <polygon
         style="fill:#0000ff;stroke:#0000ff"
         points="204,-440 194.398,-435.522 193.701,-442.488 193.701,-442.488 "
         id="polygon5127" />
      <text
         x="40"
         y="-284.39999"
         style="font-size:14px;text-anchor:middle;font-family:Times New Roman"
         id="text5129">cb:CharBuffer</text>
    </g>
    <!-- Dup__null__SHARED_m_DATA__null__SHARED_m_DATA&#45;&gt;Dup__null__SHARED_m_DATA__null__SHARED_m_DATA -->
    <g
       id="edge40"
       class="edge">
      <title
         id="title5132">Dup__null__SHARED_m_DATA__null__SHARED_m_DATA-&gt;Dup__null__SHARED_m_DATA__null__SHARED_m_DATA</title>
      <path
         style="fill:none;stroke:#ff0000;stroke-width:3"
         d="m 88,-105 c 10,0 18,1 18,4 0,2 -3,3 -8,4"
         id="path5134"
         inkscape:connector-curvature="0" />
      <polygon
         style="fill:#ff0000;stroke:#ff0000"
         points="88,-97 98,-100.5 98,-93.5001 98,-93.5001 "
         id="polygon5136" />
      <text
         x="146"
         y="-96.400002"
         style="font-size:14px;text-anchor:middle;font-family:Times New Roman"
         id="text5138">cb:CharBuffer</text>
    </g>
    <!-- Dup__null__SHARED_m_DATA__null__SHARED_m_DATA&#45;&gt;Dup__null__SHARED_m_DATA__null__SHARED_m_DATA -->
    <g
       id="edge46"
       class="edge">
      <title
         id="title5141">Dup__null__SHARED_m_DATA__null__SHARED_m_DATA-&gt;Dup__null__SHARED_m_DATA__null__SHARED_m_DATA</title>
      <path
         style="fill:none;stroke:#0000ff;stroke-width:3"
         d="m 88,-113 c 38,-8 98,-4 98,12 0,15 -50,19 -88,14"
         id="path5143"
         inkscape:connector-curvature="0" />
      <polygon
         style="fill:#0000ff;stroke:#0000ff"
         points="88,-89 98.4922,-90.4708 97.1194,-83.6067 97.1194,-83.6067 "
         id="polygon5145" />
      <text
         x="226"
         y="-96.400002"
         style="font-size:14px;text-anchor:middle;font-family:Times New Roman"
         id="text5147">cb:CharBuffer</text>
    </g>
    <!-- Dup__null__SHARED_m_DATA__null__SHARED_m_DATA&#45;&gt;java_nio_CharBuffer__null__SHARED_m_DATA__null__SHARED_m_DATA -->
    <g
       id="edge26"
       class="edge">
      <title
         id="title5150">Dup__null__SHARED_m_DATA__null__SHARED_m_DATA-&gt;java_nio_CharBuffer__null__SHARED_m_DATA__null__SHARED_m_DATA</title>
      <path
         style="fill:none;stroke:#000000"
         d="m 88,-104 c 41,-5 116,-17 134,-36 6,-6 9,-15 11,-24"
         id="path5152"
         inkscape:connector-curvature="0" />
      <polygon
         style="fill:#000000;stroke:#000000"
         points="234,-174 236.488,-163.701 229.522,-164.398 229.522,-164.398 "
         id="polygon5154" />
      <text
         x="239"
         y="-143.39999"
         style="font-size:14px;text-anchor:middle;font-family:Times New Roman"
         id="text5156">cb</text>
    </g>
    <!-- java_nio_CharBuffer__null__SHARED_m_DATA__null__SHARED_m_DATA&#45;&gt;Dup__null__SHARED_m_DATA__null__SHARED_m_DATA -->
    <g
       id="edge42"
       class="edge">
      <title
         id="title5159">java_nio_CharBuffer__null__SHARED_m_DATA__null__SHARED_m_DATA-&gt;Dup__null__SHARED_m_DATA__null__SHARED_m_DATA</title>
      <path
         style="fill:none;stroke:#0000ff;stroke-width:3"
         d="m 174,-174 c -12,5 -25,11 -36,18 -9,6 -10,10 -19,16 -7,6 -15,11 -22,16"
         id="path5161"
         inkscape:connector-curvature="0" />
      <polygon
         style="fill:#0000ff;stroke:#0000ff"
         points="88,-118 94.3791,-126.459 98.262,-120.635 98.262,-120.635 "
         id="polygon5163" />
      <text
         x="184"
         y="-143.39999"
         style="font-size:14px;text-anchor:middle;font-family:Times New Roman"
         id="text5165">cb:CharBuffer</text>
    </g>
    <!-- java_nio_CharBuffer__null__SHARED_m_DATA__null__SHARED_m_DATA&#45;&gt;java_nio_CharBuffer__null__SHARED_m_DATA__null__SHARED_m_DATA -->
    <g
       id="edge28"
       class="edge"
       transform="translate(0.54687543,0)">
      <title
         id="title5168">java_nio_CharBuffer__null__SHARED_m_DATA__null__SHARED_m_DATA-&gt;java_nio_CharBuffer__null__SHARED_m_DATA__null__SHARED_m_DATA</title>
      <path
         style="fill:none;stroke:#0000ff;stroke-width:3"
         d="m 307,-198 c 11,0 18,1 18,3 0,1 -3,2 -8,3"
         id="path5170"
         inkscape:connector-curvature="0" />
      <polygon
         style="fill:#0000ff;stroke:#0000ff"
         points="317,-195.5 317,-188.5 317,-188.5 307,-192 "
         id="polygon5172" />
      <text
         x="352.5625"
         y="-192.04062"
         style="font-size:14px;text-anchor:middle;font-family:Times New Roman"
         id="text5174">hb:char[]</text>
    </g>
    <!-- java_nio_CharBuffer__null__SHARED_m_DATA__null__SHARED_m_DATA&#45;&gt;java_nio_CharBuffer__null__SHARED_m_DATA__null__SHARED_m_DATA -->
    <g
       id="edge54"
       class="edge">
      <title
         id="title5177">java_nio_CharBuffer__null__SHARED_m_DATA__null__SHARED_m_DATA-&gt;java_nio_CharBuffer__null__SHARED_m_DATA__null__SHARED_m_DATA</title>
      <path
         style="fill:none;stroke:#ff0000;stroke-width:3"
         d="m 307,-211 c 32,0 84.06252,5 84.06252,16 0,10 -46.06252,15 -74.06252,16"
         id="path5179"
         inkscape:connector-curvature="0"
         sodipodi:nodetypes="csc" />
      <polygon
         style="fill:#ff0000;stroke:#ff0000"
         points="307,-179 317,-182.5 317,-175.5 317,-175.5 "
         id="polygon5181" />
      <text
         x="417.53128"
         y="-192.04062"
         style="font-size:14px;text-anchor:middle;font-family:Times New Roman"
         id="text5183">hb:char[]</text>
    </g>
    <!-- _null__SHARED_m_Main__DATA_buffer_owned -->
    <g
       id="node7"
       class="node"
       transform="matrix(0.92917907,0,0,1,4.8206012,-33.256142)">
      <title
         id="title5186">_null__SHARED_m_Main__DATA_buffer_owned</title>
      <polygon
         style="fill:none;stroke:#000000;stroke-width:4.51696634;stroke-dasharray:7.52827692, 3.01131077"
         points="352,-119 352,-83 558,-83 558,-119 558,-119 "
         id="polygon5188"
         transform="matrix(0.474733,0,0,1,235.6671,0)" />
      <text
         x="455"
         y="-96.900002"
         style="font-size:14px;font-weight:bold;text-anchor:middle;font-family:Arial"
         id="text5190">owned</text>
    </g>
    <!-- java_nio_CharBuffer__null__SHARED_m_DATA__null__SHARED_m_DATA&#45;&gt;_null__SHARED_m_Main__DATA_buffer_owned -->
    <g
       id="edge2"
       class="edge"
       transform="translate(-38.669932,-21.655162)">
      <title
         id="title5193">java_nio_CharBuffer__null__SHARED_m_DATA__null__SHARED_m_DATA-&gt;_null__SHARED_m_Main__DATA_buffer_owned</title>
      <path
         style="fill:none;stroke:#000000;stroke-dasharray:5, 2"
         d="M 336.72411,-152.34484 C 376.98459,-135.51214 379.14994,-135.59881 408,-123"
         id="path5195"
         inkscape:connector-curvature="0"
         sodipodi:nodetypes="cc" />
      <polygon
         style="fill:#000000;stroke:#000000"
         points="406.44,-119.863 409.283,-126.26 409.283,-126.26 417,-119 "
         id="polygon5197" />
    </g>
    <!-- char____null__SHARED_m_Main__DATA_buffer_owned -->
    <g
       id="node8"
       class="node"
       transform="translate(-5.4137905,-32.482743)">
      <title
         id="title5200">char____null__SHARED_m_Main__DATA_buffer_owned</title>
      <polygon
         style="fill:#ffffe0;stroke:#aa0000;stroke-width:5.83333778;stroke-miterlimit:4;stroke-opacity:1;stroke-dasharray:none"
         points="388,-42 332,-42 332,-1.42109e-014 388,0 388,-42 "
         id="polygon5202" />
      <text
         x="360"
         y="-25.4"
         style="font-size:14px;font-weight:bold;text-anchor:middle;font-family:Arial"
         id="text5204">hb:</text>
      <text
         x="360"
         y="-8.3999996"
         style="font-size:14px;font-weight:bold;text-anchor:middle;font-family:Arial"
         id="text5206">char[]</text>
    </g>
    <!-- java_nio_CharBuffer__null__SHARED_m_DATA__null__SHARED_m_DATA&#45;&gt;char____null__SHARED_m_Main__DATA_buffer_owned -->
    <g
       id="edge48"
       class="edge"
       transform="translate(0,-34.029541)">
      <title
         id="title5209">java_nio_CharBuffer__null__SHARED_m_DATA__null__SHARED_m_DATA-&gt;char____null__SHARED_m_Main__DATA_buffer_owned</title>
      <path
         style="fill:none;stroke:#000000"
         d="M 278.84235,-139.97046 C 312.60311,-100.63168 314.17944,-93.627842 342,-51"
         id="path5211"
         inkscape:connector-curvature="0"
         sodipodi:nodetypes="cc" />
      <polygon
         style="fill:#000000;stroke:#000000"
         points="339.084,-49.0418 345.203,-52.4414 345.203,-52.4414 347,-42 "
         id="polygon5213" />
      <text
         x="329"
         y="-96.400002"
         style="font-size:14px;text-anchor:middle;font-family:Times New Roman"
         id="text5215">hb</text>
    </g>
    <!-- _null__SHARED_m_Main__DATA_buffer_owned&#45;&gt;char____null__SHARED_m_Main__DATA_buffer_owned -->
    <g
       id="edge18"
       class="edge"
       transform="translate(-14.694574,-33.256142)">
      <title
         id="title5218">_null__SHARED_m_Main__DATA_buffer_owned-&gt;char____null__SHARED_m_Main__DATA_buffer_owned</title>
      <path
         style="fill:none;stroke:#000000;stroke-dasharray:5, 2"
         d="m 433,-83 c -12,10 -27,23 -40,34"
         id="path5220"
         inkscape:connector-curvature="0" />
      <polygon
         style="fill:#000000;stroke:#000000"
         points="390.221,-51.2191 394.831,-45.9511 394.831,-45.9511 385,-42 "
         id="polygon5222" />
    </g>
    <!-- java_nio_CharBuffer__null__SHARED_m_COPY__null__SHARED_m_COPY -->
    <g
       id="node10"
       class="node"
       transform="translate(-90.416739,-40.833366)">
      <title
         id="title5225">java_nio_CharBuffer__null__SHARED_m_COPY__null__SHARED_m_COPY</title>
      <polygon
         style="fill:#ffffe0;stroke:#000000"
         points="737,-310 737,-310 587,-310 587,-268 737,-268 "
         id="polygon5227" />
      <text
         x="662"
         y="-293.39999"
         style="font-size:14px;font-weight:bold;text-anchor:middle;font-family:Arial"
         id="text5229">chrBff:</text>
      <text
         x="662"
         y="-276.39999"
         style="font-size:14px;font-weight:bold;text-anchor:middle;font-family:Arial"
         id="text5231">CharBuffer</text>
    </g>
    <!-- _null__SHARED_m_COPY&#45;&gt;java_nio_CharBuffer__null__SHARED_m_COPY__null__SHARED_m_COPY -->
    <g
       id="edge8"
       class="edge"
       transform="translate(-136.82066,-23.818596)">
      <title
         id="title5234">_null__SHARED_m_COPY-&gt;java_nio_CharBuffer__null__SHARED_m_COPY__null__SHARED_m_COPY</title>
      <path
         style="fill:none;stroke:#000000;stroke-dasharray:5, 2"
         d="M 589.96059,-341.81281 C 602.96059,-332.81281 612,-327 626,-316"
         id="path5236"
         inkscape:connector-curvature="0"
         sodipodi:nodetypes="cc" />
      <polygon
         style="fill:#000000;stroke:#000000"
         points="628.1,-318.8 628.1,-318.8 634,-310 623.9,-313.2 "
         id="polygon5238" />
    </g>
    <!-- CDup__null__SHARED_m_COPY__null__SHARED_m_COPY -->
    <g
       id="node13"
       class="node"
       transform="translate(-90.416739,-40.833366)">
      <title
         id="title5241">CDup__null__SHARED_m_COPY__null__SHARED_m_COPY</title>
      <polygon
         style="fill:#ffffe0;stroke:#000000"
         points="725,-216 725,-216 669,-216 669,-174 725,-174 "
         id="polygon5243" />
      <text
         x="697"
         y="-199.39999"
         style="font-size:14px;font-weight:bold;text-anchor:middle;font-family:Arial"
         id="text5245">cdup:</text>
      <text
         x="697"
         y="-182.39999"
         style="font-size:14px;font-weight:bold;text-anchor:middle;font-family:Arial"
         id="text5247">CDup</text>
    </g>
    <!-- _null__SHARED_m_COPY&#45;&gt;CDup__null__SHARED_m_COPY__null__SHARED_m_COPY -->
    <g
       id="edge4"
       class="edge"
       transform="translate(-90.416739,-40.833366)">
      <title
         id="title5250">_null__SHARED_m_COPY-&gt;CDup__null__SHARED_m_COPY__null__SHARED_m_COPY</title>
      <path
         style="fill:none;stroke:#000000;stroke-dasharray:5, 2"
         d="m 484.52713,-309.33007 c 1,21 45.53692,35.89164 78.7783,47.51726 3,5 62.69457,25.81281 96.69457,45.81281"
         id="path5252"
         inkscape:connector-curvature="0"
         sodipodi:nodetypes="ccc" />
      <polygon
         style="fill:#000000;stroke:#000000"
         points="658.559,-212.797 661.958,-218.916 661.958,-218.916 669,-211 "
         id="polygon5254" />
    </g>
    <!-- java_nio_CharBuffer__null__SHARED_m_COPY__null__SHARED_m_COPY&#45;&gt;java_nio_CharBuffer__null__SHARED_m_COPY__null__SHARED_m_COPY -->
    <g
       id="edge38"
       class="edge"
       transform="translate(-90.416739,-40.833366)">
      <title
         id="title5257">java_nio_CharBuffer__null__SHARED_m_COPY__null__SHARED_m_COPY-&gt;java_nio_CharBuffer__null__SHARED_m_COPY__null__SHARED_m_COPY</title>
      <path
         style="fill:none;stroke:#ff0000;stroke-width:3"
         d="m 737,-292 c 11,0 18,1 18,3 0,1 -3,2 -8,3"
         id="path5259"
         inkscape:connector-curvature="0" />
      <polygon
         style="fill:#ff0000;stroke:#ff0000"
         points="747,-289.5 747,-282.5 747,-282.5 737,-286 "
         id="polygon5261" />
      <text
         x="782.5625"
         y="-285.49374"
         style="font-size:14px;text-anchor:middle;font-family:Times New Roman"
         id="text5263">hb:char[]</text>
    </g>
    <!-- java_nio_CharBuffer__null__SHARED_m_COPY__null__SHARED_m_COPY&#45;&gt;java_nio_CharBuffer__null__SHARED_m_COPY__null__SHARED_m_COPY -->
    <g
       id="edge58"
       class="edge"
       transform="translate(-90.416739,-40.833366)">
      <title
         id="title5266">java_nio_CharBuffer__null__SHARED_m_COPY__null__SHARED_m_COPY-&gt;java_nio_CharBuffer__null__SHARED_m_COPY__null__SHARED_m_COPY</title>
      <path
         style="fill:none;stroke:#0000ff;stroke-width:3"
         d="m 737,-305 c 32,0 77.50001,5 77.50001,16 0,10 -39.50001,15 -67.50001,16"
         id="path5268"
         inkscape:connector-curvature="0"
         sodipodi:nodetypes="csc" />
      <polygon
         style="fill:#0000ff;stroke:#0000ff"
         points="747,-276.5 747,-269.5 747,-269.5 737,-273 "
         id="polygon5270" />
      <text
         x="842.0625"
         y="-284.94687"
         style="font-size:14px;text-anchor:middle;font-family:Times New Roman"
         id="text5272">hb:char[]</text>
    </g>
    <!-- _null__SHARED_m_Main__COPY_cdup_Main__COPY_cb_owned -->
    <g
       id="node11"
       class="node"
       transform="translate(-90.416739,-40.833366)">
      <title
         id="title5275">_null__SHARED_m_Main__COPY_cdup_Main__COPY_cb_owned</title>
      <polygon
         style="fill:none;stroke:#000000;stroke-width:4.1837163;stroke-dasharray:6.97285999, 2.78914399"
         points="651,-177 651,-213 651,-213 445,-213 445,-177 "
         id="polygon5277"
         transform="matrix(0.51418348,0,0,1,267.04777,0)" />
      <text
         x="548"
         y="-190.89999"
         style="font-size:14px;font-weight:bold;text-anchor:middle;font-family:Arial"
         id="text5279">owned</text>
    </g>
    <!-- java_nio_CharBuffer__null__SHARED_m_COPY__null__SHARED_m_COPY&#45;&gt;_null__SHARED_m_Main__COPY_cdup_Main__COPY_cb_owned -->
    <g
       id="edge22"
       class="edge"
       transform="translate(-90.416739,-40.833366)">
      <title
         id="title5282">java_nio_CharBuffer__null__SHARED_m_COPY__null__SHARED_m_COPY-&gt;_null__SHARED_m_Main__COPY_cdup_Main__COPY_cb_owned</title>
      <path
         style="fill:none;stroke:#000000;stroke-dasharray:5, 2"
         d="m 636,-268 c -17,15 -40,33 -58,48"
         id="path5284"
         inkscape:connector-curvature="0" />
      <polygon
         style="fill:#000000;stroke:#000000"
         points="575.221,-222.219 579.831,-216.951 579.831,-216.951 570,-213 "
         id="polygon5286" />
    </g>
    <!-- char____null__SHARED_m_Main__COPY_cdup_Main__COPY_cb_owned -->
    <g
       id="node12"
       class="node"
       transform="translate(-90.416739,-40.833366)">
      <title
         id="title5289">char____null__SHARED_m_Main__COPY_cdup_Main__COPY_cb_owned</title>
      <polygon
         style="fill:#ffffe0;stroke:#000000"
         points="871,-122 871,-122 815,-122 815,-80 871,-80 "
         id="polygon5291" />
      <text
         x="843"
         y="-105.4"
         style="font-size:14px;font-weight:bold;text-anchor:middle;font-family:Arial"
         id="text5293">hb:</text>
      <text
         x="843"
         y="-88.400002"
         style="font-size:14px;font-weight:bold;text-anchor:middle;font-family:Arial"
         id="text5295">char[]</text>
    </g>
    <!-- java_nio_CharBuffer__null__SHARED_m_COPY__null__SHARED_m_COPY&#45;&gt;char____null__SHARED_m_Main__COPY_cdup_Main__COPY_cb_owned -->
    <g
       id="edge56"
       class="edge">
      <title
         id="title5298">java_nio_CharBuffer__null__SHARED_m_COPY__null__SHARED_m_COPY-&gt;char____null__SHARED_m_Main__COPY_cdup_Main__COPY_cb_owned</title>
      <path
         style="fill:none;stroke:#000000;stroke-width:1"
         d="m 646.58323,-324.83338 c 95,7 183.80791,8.98523 218.80791,50.98523 44,54 -10.80791,108.01477 -74.80791,124.01477"
         id="path5300"
         inkscape:connector-curvature="0"
         sodipodi:nodetypes="ccc" />
      <polygon
         style="fill:#000000;stroke:#000000"
         points="880.119,-112.393 881.492,-105.529 881.492,-105.529 871,-107 "
         id="polygon5302"
         transform="translate(-90.416739,-40.833366)" />
      <text
         x="859.50885"
         y="-285.37115"
         style="font-size:14px;text-anchor:middle;font-family:Times New Roman"
         id="text5304">hb</text>
    </g>
    <!-- java_nio_CharBuffer__null__SHARED_m_COPY__null__SHARED_m_COPY&#45;&gt;CDup__null__SHARED_m_COPY__null__SHARED_m_COPY -->
    <g
       id="edge50"
       class="edge"
       transform="translate(-90.416739,-40.833366)">
      <title
         id="title5307">java_nio_CharBuffer__null__SHARED_m_COPY__null__SHARED_m_COPY-&gt;CDup__null__SHARED_m_COPY__null__SHARED_m_COPY</title>
      <path
         style="fill:none;stroke:#0000ff;stroke-width:3"
         d="m 654.25289,-268.59647 c -5,11 -3.58621,21.6798 1.41379,31.6798 2,4 9,10 16,16"
         id="path5309"
         inkscape:connector-curvature="0"
         sodipodi:nodetypes="csc" />
      <polygon
         style="fill:#0000ff;stroke:#0000ff"
         points="669,-212 658.738,-214.635 662.621,-220.459 662.621,-220.459 "
         id="polygon5311"
         transform="translate(11.666676,-2.916669)" />
      <text
         x="707.54681"
         y="-239.7202"
         style="font-size:14px;text-anchor:middle;font-family:Times New Roman"
         id="text5313">chrBff:CharBuffer</text>
    </g>
    <!-- _null__SHARED_m_Main__COPY_cdup_Main__COPY_cb_owned&#45;&gt;char____null__SHARED_m_Main__COPY_cdup_Main__COPY_cb_owned -->
    <g
       id="edge10"
       class="edge"
       transform="translate(-90.416739,-40.833366)">
      <title
         id="title5316">_null__SHARED_m_Main__COPY_cdup_Main__COPY_cb_owned-&gt;char____null__SHARED_m_Main__COPY_cdup_Main__COPY_cb_owned</title>
      <path
         style="fill:none;stroke:#000000;stroke-dasharray:5, 2"
         d="m 605,-177 c 58,19 150,48 200,64"
         id="path5318"
         inkscape:connector-curvature="0" />
      <polygon
         style="fill:#000000;stroke:#000000"
         points="804.416,-109.521 806.427,-116.226 806.427,-116.226 815,-110 "
         id="polygon5320" />
    </g>
    <!-- CDup__null__SHARED_m_COPY__null__SHARED_m_COPY&#45;&gt;java_nio_CharBuffer__null__SHARED_m_COPY__null__SHARED_m_COPY -->
    <g
       id="edge36"
       class="edge"
       transform="translate(-90.416739,-40.833366)">
      <title
         id="title5323">CDup__null__SHARED_m_COPY__null__SHARED_m_COPY-&gt;java_nio_CharBuffer__null__SHARED_m_COPY__null__SHARED_m_COPY</title>
      <path
         style="fill:none;stroke:#000000"
         d="m 725,-202 c 29,-9 67,-25 51,-48 -5,-6 -16,-11 -29,-17"
         id="path5325"
         inkscape:connector-curvature="0" />
      <polygon
         style="fill:#000000;stroke:#000000"
         points="747.584,-270.479 745.573,-263.774 745.573,-263.774 737,-270 "
         id="polygon5327" />
      <text
         x="786"
         y="-237.39999"
         style="font-size:14px;text-anchor:middle;font-family:Times New Roman"
         id="text5329">cb</text>
    </g>
    <!-- CDup__null__SHARED_m_COPY__null__SHARED_m_COPY&#45;&gt;CDup__null__SHARED_m_COPY__null__SHARED_m_COPY -->
    <g
       id="edge34"
       class="edge"
       transform="translate(-90.416739,-40.833366)">
      <title
         id="title5332">CDup__null__SHARED_m_COPY__null__SHARED_m_COPY-&gt;CDup__null__SHARED_m_COPY__null__SHARED_m_COPY</title>
      <path
         style="fill:none;stroke:#0000ff;stroke-width:3"
         d="m 725,-199 c 10,0 18,1 18,4 0,2 -3,3 -8,4"
         id="path5334"
         inkscape:connector-curvature="0" />
      <polygon
         style="fill:#0000ff;stroke:#0000ff"
         points="735,-194.5 735,-187.5 735,-187.5 725,-191 "
         id="polygon5336" />
      <text
         x="796.49261"
         y="-191.17339"
         style="font-size:14px;text-anchor:middle;font-family:Times New Roman"
         id="text5338">chrBff:CharBuffer</text>
    </g>
    <!-- CDup__null__SHARED_m_COPY__null__SHARED_m_COPY&#45;&gt;CDup__null__SHARED_m_COPY__null__SHARED_m_COPY -->
    <g
       id="edge44"
       class="edge"
       transform="translate(-90.416739,-40.833366)">
      <title
         id="title5341">CDup__null__SHARED_m_COPY__null__SHARED_m_COPY-&gt;CDup__null__SHARED_m_COPY__null__SHARED_m_COPY</title>
      <path
         style="fill:none;stroke:#ff0000;stroke-width:3"
         d="m 725,-206 c 50,-9 130.62562,-5.2266 130.62562,11.7734 C 855.62562,-178.2266 787,-175 735,-182"
         id="path5343"
         inkscape:connector-curvature="0"
         sodipodi:nodetypes="csc" />
      <polygon
         style="fill:#ff0000;stroke:#ff0000"
         points="735.492,-185.471 734.119,-178.607 734.119,-178.607 725,-184 "
         id="polygon5345" />
      <text
         x="909.89166"
         y="-192.7202"
         style="font-size:14px;text-anchor:middle;font-family:Times New Roman"
         id="text5347">chrBff:CharBuffer</text>
    </g>
    <g
       id="g6"
       transform="matrix(0.06797422,0,0,0.06797422,173.41527,189.65611)">
      <title
         id="title8">Layer 1</title>
      <g
         transform="matrix(0.925703,0,0,0.925703,31.3296,35.7351)"
         id="g1196" />
      <g
         id="g3990"
         transform="matrix(0.41333896,0,0,0.41333896,1016.57,-8575.5802)">
        <path
           style="fill:#ff0000;fill-rule:evenodd;stroke:#000000;stroke-width:51.90468597;stroke-linecap:round;stroke-linejoin:bevel;stroke-miterlimit:4;stroke-dasharray:none"
           inkscape:connector-curvature="0"
           d="M 369.19382,55.168335 C 360.42743,55.59935 352.48703,60.449524 348.09573,68.049011 239.03441,256.96542 129.97305,445.88184 20.911717,634.79828 c -4.618269,7.99432 -4.614269,17.8399 0,25.83697 4.614256,7.99707 13.126057,12.92859 22.358414,12.9311 217.215249,0.042 434.430489,0.084 651.645699,0.12603 9.21076,-0.005 17.7135,-4.91229 22.33326,-12.88067 4.61969,-7.96839 4.64776,-17.79065 0.0756,-25.78656 C 609.17078,446.06671 501.01691,257.10828 392.86298,68.149842 388.03754,59.713807 378.90103,54.697938 369.19382,55.168336 z"
           id="path1825"
           stroke-miterlimit="4" />
        <g
           id="g4359"
           transform="matrix(0.925703,0,0,0.925703,-555.541,27.814)">
          <path
             style="fill:#030303;fill-rule:nonzero;stroke:#000000;stroke-width:0;stroke-linecap:round;stroke-linejoin:round;stroke-miterlimit:4"
             inkscape:connector-curvature="0"
             d="m 1050.0822,571.66534 a 46.868614,46.868614 0 1 1 -93.73717,0 46.868614,46.868614 0 1 1 93.73717,0 z"
             id="path3656"
             stroke-miterlimit="4" />
          <path
             style="fill:#000000;fill-rule:evenodd;stroke-width:95.75;stroke-linecap:round;stroke-miterlimit:4"
             inkscape:connector-curvature="0"
             d="m 998.03125,198.38982 c -26.41602,0.39675 -47.51868,22.11474 -47.15625,48.53126 l 7.5,200.875 c 0.64423,17.25513 3.82696,30.82483 18.73993,39.52881 14.9129,8.70404 28.35717,8.70404 43.27017,0 14.9129,-8.70398 18.0957,-22.27368 18.7399,-39.52881 l 7.5,-200.875 c 0.1775,-12.93576 -4.8872,-25.39284 -14.041,-34.53476 -9.1537,-9.14195 -21.6172,-14.19063 -34.55275,-13.99651 l 0,0 z"
             id="path4355"
             stroke-miterlimit="4" />
        </g>
      </g>
    </g>
  </g>
</svg>
