<?xml version="1.0" encoding="UTF-8" standalone="no"?>
<!-- Generated by Graphviz version 2.20.2 (Wed Jul &#160;9 19:59:08 GMT 2008)
     For user: radu -->

<!-- Title: G Pages: 1 -->

<svg
   xmlns:dc="http://purl.org/dc/elements/1.1/"
   xmlns:cc="http://creativecommons.org/ns#"
   xmlns:rdf="http://www.w3.org/1999/02/22-rdf-syntax-ns#"
   xmlns:svg="http://www.w3.org/2000/svg"
   xmlns="http://www.w3.org/2000/svg"
   xmlns:sodipodi="http://sodipodi.sourceforge.net/DTD/sodipodi-0.dtd"
   xmlns:inkscape="http://www.inkscape.org/namespaces/inkscape"
   width="576pt"
   height="414pt"
   viewBox="0.00 0.00 576.00 414.17"
   id="svg6266"
   version="1.1"
   inkscape:version="0.48.1 "
   sodipodi:docname="logs-dfptOGraph.svg">
  <metadata
     id="metadata6519">
    <rdf:RDF>
      <cc:Work
         rdf:about="">
        <dc:format>image/svg+xml</dc:format>
        <dc:type
           rdf:resource="http://purl.org/dc/dcmitype/StillImage" />
        <dc:title />
      </cc:Work>
    </rdf:RDF>
  </metadata>
  <defs
     id="defs6517" />
  <sodipodi:namedview
     pagecolor="#ffffff"
     bordercolor="#666666"
     borderopacity="1"
     objecttolerance="10"
     gridtolerance="10"
     guidetolerance="10"
     inkscape:pageopacity="0"
     inkscape:pageshadow="2"
     inkscape:window-width="1600"
     inkscape:window-height="874"
     id="namedview6515"
     showgrid="false"
     inkscape:zoom="1.1323671"
     inkscape:cx="445.09657"
     inkscape:cy="258.75"
     inkscape:window-x="1596"
     inkscape:window-y="-4"
     inkscape:window-maximized="1"
     inkscape:current-layer="graph0" />
  <g
     id="graph0"
     class="graph"
     transform="scale(0.766977 0.766977) rotate(0) translate(4 536)">
    <title
       id="title6269">G</title>
    <polygon
       style="fill:white;stroke:white;"
       points="-4,4 -4,-536 747,-536 747,4 -4,4"
       id="polygon6271" />
    <!-- DS -->
    <g
       id="node1"
       class="node">
      <title
         id="title6274">DS</title>
      <polygon
         style="fill:none;stroke:black;stroke-dasharray:5,2;"
         points="594,-532 484,-532 484,-496 594,-496 594,-532"
         id="polygon6276" />
      <text
         text-anchor="middle"
         x="539"
         y="-509.9"
         style="font-family:Arial;font-weight:bold;font-size:14.00;"
         id="text6278">null::SHARED</text>
    </g>
    <!-- Main_DS0DS -->
    <g
       id="node2"
       class="node">
      <title
         id="title6281">Main_DS0DS</title>
      <polygon
         style="fill:lightyellow;stroke:black;"
         points="482,-458 428,-458 428,-416 482,-416 482,-458"
         id="polygon6283" />
      <text
         text-anchor="middle"
         x="455"
         y="-441.4"
         style="font-family:Arial;font-weight:bold;font-size:14.00;"
         id="text6285">m:</text>
      <text
         text-anchor="middle"
         x="455"
         y="-424.4"
         style="font-family:Arial;font-weight:bold;font-size:14.00;"
         id="text6287">Main</text>
    </g>
    <!-- DS&#45;&gt;Main_DS0DS -->
    <g
       id="edge20"
       class="edge">
      <title
         id="title6290">DS-&gt;Main_DS0DS</title>
      <path
         style="fill:none;stroke:black;stroke-dasharray:5,2;"
         d="M519,-496C509,-487 497,-475 486,-465"
         id="path6292" />
      <polygon
         style="fill:black;stroke:black;"
         points="487.831,-461.951 478,-458 483.221,-467.219 487.831,-461.951"
         id="polygon6294" />
    </g>
    <!-- java_lang_String_DS0DS -->
    <g
       id="node3"
       class="node">
      <title
         id="title6297">java_lang_String_DS0DS</title>
      <polygon
         style="fill:lightyellow;stroke:black;"
         points="634,-458 500,-458 500,-416 634,-416 634,-458"
         id="polygon6299" />
      <text
         text-anchor="middle"
         x="567"
         y="-441.4"
         style="font-family:Arial;font-weight:bold;font-size:14.00;"
         id="text6301">www.wayne.edu:</text>
      <text
         text-anchor="middle"
         x="567"
         y="-424.4"
         style="font-family:Arial;font-weight:bold;font-size:14.00;"
         id="text6303">java.lang.String</text>
    </g>
    <!-- DS&#45;&gt;java_lang_String_DS0DS -->
    <g
       id="edge4"
       class="edge">
      <title
         id="title6306">DS-&gt;java_lang_String_DS0DS</title>
      <path
         style="fill:none;stroke:black;stroke-dasharray:5,2;"
         d="M546,-496C549,-488 552,-477 556,-468"
         id="path6308" />
      <polygon
         style="fill:black;stroke:black;"
         points="559.479,-468.584 559,-458 552.774,-466.573 559.479,-468.584"
         id="polygon6310" />
    </g>
    <!-- _null__SHARED_m_DATA1_null__SHARED_m_DATA -->
    <g
       id="node4"
       class="node">
      <title
         id="title6313">_null__SHARED_m_DATA1_null__SHARED_m_DATA</title>
      <polygon
         style="fill:none;stroke:black;stroke-dasharray:5,2;"
         points="218,-378 118,-378 118,-342 218,-342 218,-378"
         id="polygon6315" />
      <text
         text-anchor="middle"
         x="168"
         y="-355.9"
         style="font-family:Arial;font-weight:bold;font-size:14.00;"
         id="text6317">Main::DATA</text>
    </g>
    <!-- Main_DS0DS&#45;&gt;_null__SHARED_m_DATA1_null__SHARED_m_DATA -->
    <g
       id="edge8"
       class="edge">
      <title
         id="title6320">Main_DS0DS-&gt;_null__SHARED_m_DATA1_null__SHARED_m_DATA</title>
      <path
         style="fill:none;stroke:black;stroke-dasharray:5,2;"
         d="M428,-430C383,-418 290,-393 228,-377"
         id="path6322" />
      <polygon
         style="fill:black;stroke:black;"
         points="228.584,-373.521 218,-374 226.573,-380.226 228.584,-373.521"
         id="polygon6324" />
    </g>
    <!-- _null__SHARED_m_SERVER2_null__SHARED_m_SERVER -->
    <g
       id="node7"
       class="node">
      <title
         id="title6327">_null__SHARED_m_SERVER2_null__SHARED_m_SERVER</title>
      <polygon
         style="fill:none;stroke:black;stroke-dasharray:5,2;"
         points="514,-378 396,-378 396,-342 514,-342 514,-378"
         id="polygon6329" />
      <text
         text-anchor="middle"
         x="455"
         y="-355.9"
         style="font-family:Arial;font-weight:bold;font-size:14.00;"
         id="text6331">Main::SERVER</text>
    </g>
    <!-- Main_DS0DS&#45;&gt;_null__SHARED_m_SERVER2_null__SHARED_m_SERVER -->
    <g
       id="edge14"
       class="edge">
      <title
         id="title6334">Main_DS0DS-&gt;_null__SHARED_m_SERVER2_null__SHARED_m_SERVER</title>
      <path
         style="fill:none;stroke:black;stroke-dasharray:5,2;"
         d="M455,-416C455,-407 455,-397 455,-388"
         id="path6336" />
      <polygon
         style="fill:black;stroke:black;"
         points="458.5,-388 455,-378 451.5,-388 458.5,-388"
         id="polygon6338" />
    </g>
    <!-- LogServer__null__SHARED_m_SERVER2_null__SHARED_m_SERVER__null__SHARED_m_DATA1_null__SHARED_m_DATA -->
    <g
       id="node9"
       class="node">
      <title
         id="title6341">LogServer__null__SHARED_m_SERVER2_null__SHARED_m_SERVER__null__SHARED_m_DATA1_null__SHARED_m_DATA</title>
      <polygon
         style="fill:lightyellow;stroke:black;"
         points="525,-196 435,-196 435,-154 525,-154 525,-196"
         id="polygon6343" />
      <text
         text-anchor="middle"
         x="480"
         y="-179.4"
         style="font-family:Arial;font-weight:bold;font-size:14.00;"
         id="text6345">server:</text>
      <text
         text-anchor="middle"
         x="480"
         y="-162.4"
         style="font-family:Arial;font-weight:bold;font-size:14.00;"
         id="text6347">LogServer</text>
    </g>
    <!-- Main_DS0DS&#45;&gt;LogServer__null__SHARED_m_SERVER2_null__SHARED_m_SERVER__null__SHARED_m_DATA1_null__SHARED_m_DATA -->
    <g
       id="edge28"
       class="edge">
      <title
         id="title6350">Main_DS0DS-&gt;LogServer__null__SHARED_m_SERVER2_null__SHARED_m_SERVER__null__SHARED_m_DATA1_null__SHARED_m_DATA</title>
      <path
         style="fill:none;stroke:red;stroke-width:3;"
         d="M482,-419C516,-394 572,-347 591,-290 601,-258 608,-240 588,-214 581,-204 558,-196 535,-189"
         id="path6352" />
      <polygon
         style="fill:red;stroke:red;"
         points="535.584,-185.521 525,-186 533.573,-192.226 535.584,-185.521"
         id="polygon6354" />
      <text
         text-anchor="middle"
         x="631"
         y="-311.4"
         style="font-family:Times New Roman;font-size:14.00;"
         id="text6356">ipAddress:String</text>
    </g>
    <!-- java_lang_String__null__SHARED_m_DATA1_null__SHARED_m_DATA -->
    <g
       id="node5"
       class="node">
      <title
         id="title6359">java_lang_String__null__SHARED_m_DATA1_null__SHARED_m_DATA</title>
      <polygon
         style="fill:lightyellow;stroke:black;"
         points="124,-196 2.84217e-014,-196 0,-154 124,-154 124,-196"
         id="polygon6361" />
      <text
         text-anchor="middle"
         x="62"
         y="-179.4"
         style="font-family:Arial;font-weight:bold;font-size:14.00;"
         id="text6363">ipAddress:</text>
      <text
         text-anchor="middle"
         x="62"
         y="-162.4"
         style="font-family:Arial;font-weight:bold;font-size:14.00;"
         id="text6365">java.lang.String</text>
    </g>
    <!-- _null__SHARED_m_DATA1_null__SHARED_m_DATA&#45;&gt;java_lang_String__null__SHARED_m_DATA1_null__SHARED_m_DATA -->
    <g
       id="edge6"
       class="edge">
      <title
         id="title6368">_null__SHARED_m_DATA1_null__SHARED_m_DATA-&gt;java_lang_String__null__SHARED_m_DATA1_null__SHARED_m_DATA</title>
      <path
         style="fill:none;stroke:black;stroke-dasharray:5,2;"
         d="M118,-342C94,-331 68,-314 54,-290 40,-265 44,-231 51,-206"
         id="path6370" />
      <polygon
         style="fill:black;stroke:black;"
         points="54.4788,-206.584 54,-196 47.7741,-204.573 54.4788,-206.584"
         id="polygon6372" />
    </g>
    <!-- java_lang_SecurityException__null__SHARED_m_DATA1_null__SHARED_m_DATA -->
    <g
       id="node6"
       class="node">
      <title
         id="title6375">java_lang_SecurityException__null__SHARED_m_DATA1_null__SHARED_m_DATA</title>
      <polygon
         style="fill:lightyellow;stroke:black;"
         points="273,-290 63,-290 63,-248 273,-248 273,-290"
         id="polygon6377" />
      <text
         text-anchor="middle"
         x="168"
         y="-273.4"
         style="font-family:Arial;font-weight:bold;font-size:14.00;"
         id="text6379">securityException:</text>
      <text
         text-anchor="middle"
         x="168"
         y="-256.4"
         style="font-family:Arial;font-weight:bold;font-size:14.00;"
         id="text6381">java.lang.SecurityException</text>
    </g>
    <!-- _null__SHARED_m_DATA1_null__SHARED_m_DATA&#45;&gt;java_lang_SecurityException__null__SHARED_m_DATA1_null__SHARED_m_DATA -->
    <g
       id="edge18"
       class="edge">
      <title
         id="title6384">_null__SHARED_m_DATA1_null__SHARED_m_DATA-&gt;java_lang_SecurityException__null__SHARED_m_DATA1_null__SHARED_m_DATA</title>
      <path
         style="fill:none;stroke:black;stroke-dasharray:5,2;"
         d="M168,-342C168,-330 168,-314 168,-300"
         id="path6386" />
      <polygon
         style="fill:black;stroke:black;"
         points="171.5,-300 168,-290 164.5,-300 171.5,-300"
         id="polygon6388" />
    </g>
    <!-- java_net_InetAddress__null__SHARED_m_SERVER2_null__SHARED_m_SERVER__null__SHARED_m_DATA1_null__SHARED_m_DATA -->
    <g
       id="node8"
       class="node">
      <title
         id="title6391">java_net_InetAddress__null__SHARED_m_SERVER2_null__SHARED_m_SERVER__null__SHARED_m_DATA1_null__SHARED_m_DATA</title>
      <polygon
         style="fill:lightyellow;stroke:black;"
         points="449,-290 291,-290 291,-248 449,-248 449,-290"
         id="polygon6393" />
      <text
         text-anchor="middle"
         x="370"
         y="-273.4"
         style="font-family:Arial;font-weight:bold;font-size:14.00;"
         id="text6395">inetAddress:</text>
      <text
         text-anchor="middle"
         x="370"
         y="-256.4"
         style="font-family:Arial;font-weight:bold;font-size:14.00;"
         id="text6397">java.net.InetAddress</text>
    </g>
    <!-- _null__SHARED_m_SERVER2_null__SHARED_m_SERVER&#45;&gt;java_net_InetAddress__null__SHARED_m_SERVER2_null__SHARED_m_SERVER__null__SHARED_m_DATA1_null__SHARED_m_DATA -->
    <g
       id="edge12"
       class="edge">
      <title
         id="title6400">_null__SHARED_m_SERVER2_null__SHARED_m_SERVER-&gt;java_net_InetAddress__null__SHARED_m_SERVER2_null__SHARED_m_SERVER__null__SHARED_m_DATA1_null__SHARED_m_DATA</title>
      <path
         style="fill:none;stroke:black;stroke-dasharray:5,2;"
         d="M438,-342C426,-329 410,-312 397,-298"
         id="path6402" />
      <polygon
         style="fill:black;stroke:black;"
         points="399.219,-295.221 390,-290 393.951,-299.831 399.219,-295.221"
         id="polygon6404" />
    </g>
    <!-- _null__SHARED_m_SERVER2_null__SHARED_m_SERVER&#45;&gt;LogServer__null__SHARED_m_SERVER2_null__SHARED_m_SERVER__null__SHARED_m_DATA1_null__SHARED_m_DATA -->
    <g
       id="edge10"
       class="edge">
      <title
         id="title6407">_null__SHARED_m_SERVER2_null__SHARED_m_SERVER-&gt;LogServer__null__SHARED_m_SERVER2_null__SHARED_m_SERVER__null__SHARED_m_DATA1_null__SHARED_m_DATA</title>
      <path
         style="fill:none;stroke:black;stroke-dasharray:5,2;"
         d="M507,-342C531,-331 557,-314 570,-290 587,-260 588,-241 568,-214 560,-202 548,-194 534,-188"
         id="path6409" />
      <polygon
         style="fill:black;stroke:black;"
         points="535.56,-184.863 525,-184 532.717,-191.26 535.56,-184.863"
         id="polygon6411" />
    </g>
    <!-- java_net_InetAddress__null__SHARED_m_SERVER2_null__SHARED_m_SERVER__null__SHARED_m_DATA1_null__SHARED_m_DATA&#45;&gt;java_lang_String__null__SHARED_m_DATA1_null__SHARED_m_DATA -->
    <g
       id="edge32"
       class="edge">
      <title
         id="title6414">java_net_InetAddress__null__SHARED_m_SERVER2_null__SHARED_m_SERVER__null__SHARED_m_DATA1_null__SHARED_m_DATA-&gt;java_lang_String__null__SHARED_m_DATA1_null__SHARED_m_DATA</title>
      <path
         style="fill:none;stroke:black;"
         d="M291,-249C288,-249 285,-248 282,-248 213,-235 190,-258 125,-230 111,-224 99,-213 88,-203"
         id="path6416" />
      <polygon
         style="fill:black;stroke:black;"
         points="90.546,-200.596 81,-196 85.5962,-205.546 90.546,-200.596"
         id="polygon6418" />
      <text
         text-anchor="middle"
         x="167"
         y="-217.4"
         style="font-family:Times New Roman;font-size:14.00;"
         id="text6420">hostAddress</text>
    </g>
    <!-- java_net_InetAddress__null__SHARED_m_SERVER2_null__SHARED_m_SERVER__null__SHARED_m_DATA1_null__SHARED_m_DATA&#45;&gt;java_net_InetAddress__null__SHARED_m_SERVER2_null__SHARED_m_SERVER__null__SHARED_m_DATA1_null__SHARED_m_DATA -->
    <g
       id="edge24"
       class="edge">
      <title
         id="title6423">java_net_InetAddress__null__SHARED_m_SERVER2_null__SHARED_m_SERVER__null__SHARED_m_DATA1_null__SHARED_m_DATA-&gt;java_net_InetAddress__null__SHARED_m_SERVER2_null__SHARED_m_SERVER__null__SHARED_m_DATA1_null__SHARED_m_DATA</title>
      <path
         style="fill:none;stroke:blue;stroke-width:3;"
         d="M449,-276C460,-275 467,-273 467,-269 467,-266 464,-265 459,-264"
         id="path6425" />
      <polygon
         style="fill:blue;stroke:blue;"
         points="459.492,-260.529 449,-262 458.119,-267.393 459.492,-260.529"
         id="polygon6427" />
      <text
         text-anchor="middle"
         x="514"
         y="-264.4"
         style="font-family:Times New Roman;font-size:14.00;"
         id="text6429">ipAddress:String</text>
    </g>
    <!-- java_net_InetAddress__null__SHARED_m_SERVER2_null__SHARED_m_SERVER__null__SHARED_m_DATA1_null__SHARED_m_DATA&#45;&gt;LogServer__null__SHARED_m_SERVER2_null__SHARED_m_SERVER__null__SHARED_m_DATA1_null__SHARED_m_DATA -->
    <g
       id="edge30"
       class="edge">
      <title
         id="title6432">java_net_InetAddress__null__SHARED_m_SERVER2_null__SHARED_m_SERVER__null__SHARED_m_DATA1_null__SHARED_m_DATA-&gt;LogServer__null__SHARED_m_SERVER2_null__SHARED_m_SERVER__null__SHARED_m_DATA1_null__SHARED_m_DATA</title>
      <path
         style="fill:none;stroke:blue;stroke-width:3;"
         d="M291,-250C288,-249 285,-249 282,-248 247,-239 226,-258 203,-230 199,-224 199,-219 203,-214 217,-197 348,-185 425,-179"
         id="path6434" />
      <polygon
         style="fill:blue;stroke:blue;"
         points="425.398,-182.478 435,-178 424.701,-175.512 425.398,-182.478"
         id="polygon6436" />
      <text
         text-anchor="middle"
         x="253"
         y="-217.4"
         style="font-family:Times New Roman;font-size:14.00;"
         id="text6438">ipAddress:String</text>
    </g>
    <!-- java_net_InetAddress__null__SHARED_m_SERVER2_null__SHARED_m_SERVER__null__SHARED_m_DATA1_null__SHARED_m_DATA&#45;&gt;LogServer__null__SHARED_m_SERVER2_null__SHARED_m_SERVER__null__SHARED_m_DATA1_null__SHARED_m_DATA -->
    <g
       id="edge38"
       class="edge">
      <title
         id="title6441">java_net_InetAddress__null__SHARED_m_SERVER2_null__SHARED_m_SERVER__null__SHARED_m_DATA1_null__SHARED_m_DATA-&gt;LogServer__null__SHARED_m_SERVER2_null__SHARED_m_SERVER__null__SHARED_m_DATA1_null__SHARED_m_DATA</title>
      <path
         style="fill:none;stroke:blue;stroke-width:3;"
         d="M330,-248C317,-238 307,-226 316,-214 330,-196 383,-187 425,-180"
         id="path6443" />
      <polygon
         style="fill:blue;stroke:blue;"
         points="425.398,-183.478 435,-179 424.701,-176.512 425.398,-183.478"
         id="polygon6445" />
      <text
         text-anchor="middle"
         x="385"
         y="-217.4"
         style="font-family:Times New Roman;font-size:14.00;"
         id="text6447">inetAddress:InetAddress</text>
    </g>
    <!-- LogServer__null__SHARED_m_SERVER2_null__SHARED_m_SERVER__null__SHARED_m_DATA1_null__SHARED_m_DATA&#45;&gt;java_net_InetAddress__null__SHARED_m_SERVER2_null__SHARED_m_SERVER__null__SHARED_m_DATA1_null__SHARED_m_DATA -->
    <g
       id="edge22"
       class="edge">
      <title
         id="title6450">LogServer__null__SHARED_m_SERVER2_null__SHARED_m_SERVER__null__SHARED_m_DATA1_null__SHARED_m_DATA-&gt;java_net_InetAddress__null__SHARED_m_SERVER2_null__SHARED_m_SERVER__null__SHARED_m_DATA1_null__SHARED_m_DATA</title>
      <path
         style="fill:none;stroke:red;stroke-width:3;"
         d="M476,-196C473,-207 467,-221 458,-230 453,-235 448,-239 443,-243"
         id="path6452" />
      <polygon
         style="fill:red;stroke:red;"
         points="441.042,-240.084 434,-248 444.441,-246.203 441.042,-240.084"
         id="polygon6454" />
      <text
         text-anchor="middle"
         x="517"
         y="-217.4"
         style="font-family:Times New Roman;font-size:14.00;"
         id="text6456">ipAddress:String</text>
    </g>
    <!-- _null__SHARED_m_Main__SERVER_server_owned -->
    <g
       id="node10"
       class="node">
      <title
         id="title6459">_null__SHARED_m_Main__SERVER_server_owned</title>
      <polygon
         style="fill:none;stroke:black;stroke-width:3;stroke-dasharray:5,2;"
         points="379,-116 233,-116 233,-80 379,-80 379,-116"
         id="polygon6461" />
      <text
         text-anchor="middle"
         x="306"
         y="-93.9"
         style="font-family:Arial;font-weight:bold;font-size:14.00;"
         id="text6463">LogServer::owned</text>
    </g>
    <!-- LogServer__null__SHARED_m_SERVER2_null__SHARED_m_SERVER__null__SHARED_m_DATA1_null__SHARED_m_DATA&#45;&gt;_null__SHARED_m_Main__SERVER_server_owned -->
    <g
       id="edge2"
       class="edge">
      <title
         id="title6466">LogServer__null__SHARED_m_SERVER2_null__SHARED_m_SERVER__null__SHARED_m_DATA1_null__SHARED_m_DATA-&gt;_null__SHARED_m_Main__SERVER_server_owned</title>
      <path
         style="fill:none;stroke:black;stroke-dasharray:5,2;"
         d="M435,-155C411,-144 381,-131 356,-120"
         id="path6468" />
      <polygon
         style="fill:black;stroke:black;"
         points="357.56,-116.863 347,-116 354.717,-123.26 357.56,-116.863"
         id="polygon6470" />
    </g>
    <!-- java_util_Logger__null__SHARED_m_Main__SERVER_server_owned__null__SHARED_m_DATA1_null__SHARED_m_DATA -->
    <g
       id="node11"
       class="node">
      <title
         id="title6473">java_util_Logger__null__SHARED_m_Main__SERVER_server_owned__null__SHARED_m_DATA1_null__SHARED_m_DATA</title>
      <polygon
         style="fill:#ff756c;stroke:black;fill-opacity:1"
         points="541,-42 419,-42 419,-1.42109e-014 541,-0 541,-42"
         id="polygon6475" />
      <text
         x="480"
         y="-25.4"
         style="font-size:14px;font-weight:bold;text-anchor:middle;font-family:Arial"
         id="text6477">logger:(-)</text>
      <text
         text-anchor="middle"
         x="480"
         y="-8.4"
         style="font-family:Arial;font-weight:bold;font-size:14.00;"
         id="text6479">java.util.Logger</text>
    </g>
    <!-- LogServer__null__SHARED_m_SERVER2_null__SHARED_m_SERVER__null__SHARED_m_DATA1_null__SHARED_m_DATA&#45;&gt;java_util_Logger__null__SHARED_m_Main__SERVER_server_owned__null__SHARED_m_DATA1_null__SHARED_m_DATA -->
    <g
       id="edge26"
       class="edge">
      <title
         id="title6482">LogServer__null__SHARED_m_SERVER2_null__SHARED_m_SERVER__null__SHARED_m_DATA1_null__SHARED_m_DATA-&gt;java_util_Logger__null__SHARED_m_Main__SERVER_server_owned__null__SHARED_m_DATA1_null__SHARED_m_DATA</title>
      <path
         style="fill:none;stroke:red;stroke-width:3;"
         d="M456,-154C446,-144 435,-130 429,-116 424,-101 424,-94 429,-80 434,-69 441,-58 448,-50"
         id="path6484" />
      <polygon
         style="fill:red;stroke:red;"
         points="451.049,-51.8306 455,-42 445.781,-47.221 451.049,-51.8306"
         id="polygon6486" />
      <text
         x="475.31396"
         y="-96.164528"
         style="font-size:14px;text-anchor:middle;font-family:Times New Roman"
         id="text6488">ipAddress:String</text>
    </g>
    <!-- LogServer__null__SHARED_m_SERVER2_null__SHARED_m_SERVER__null__SHARED_m_DATA1_null__SHARED_m_DATA&#45;&gt;java_util_Logger__null__SHARED_m_Main__SERVER_server_owned__null__SHARED_m_DATA1_null__SHARED_m_DATA -->
    <g
       id="edge34"
       class="edge">
      <title
         id="title6491">LogServer__null__SHARED_m_SERVER2_null__SHARED_m_SERVER__null__SHARED_m_DATA1_null__SHARED_m_DATA-&gt;java_util_Logger__null__SHARED_m_Main__SERVER_server_owned__null__SHARED_m_DATA1_null__SHARED_m_DATA</title>
      <path
         style="fill:none;stroke:red;stroke-width:3;"
         d="M500,-154C509,-143 518,-130 523,-116 528,-100 528,-95 523,-80 519,-69 513,-59 506,-50"
         id="path6493" />
      <polygon
         style="fill:red;stroke:red;"
         points="508.8,-47.9 500,-42 503.2,-52.1 508.8,-47.9"
         id="polygon6495" />
      <text
         text-anchor="middle"
         x="592"
         y="-93.4"
         style="font-family:Times New Roman;font-size:14.00;"
         id="text6497">www.wayne.edu:String</text>
    </g>
    <!-- _null__SHARED_m_Main__SERVER_server_owned&#45;&gt;java_util_Logger__null__SHARED_m_Main__SERVER_server_owned__null__SHARED_m_DATA1_null__SHARED_m_DATA -->
    <g
       id="edge16"
       class="edge">
      <title
         id="title6500">_null__SHARED_m_Main__SERVER_server_owned-&gt;java_util_Logger__null__SHARED_m_Main__SERVER_server_owned__null__SHARED_m_DATA1_null__SHARED_m_DATA</title>
      <path
         style="fill:none;stroke:black;stroke-dasharray:5,2;"
         d="M347,-80C369,-70 398,-57 423,-46"
         id="path6502" />
      <polygon
         style="fill:black;stroke:black;"
         points="424.283,-49.2598 432,-42 421.44,-42.8631 424.283,-49.2598"
         id="polygon6504" />
    </g>
    <!-- java_util_Logger__null__SHARED_m_Main__SERVER_server_owned__null__SHARED_m_DATA1_null__SHARED_m_DATA&#45;&gt;LogServer__null__SHARED_m_SERVER2_null__SHARED_m_SERVER__null__SHARED_m_DATA1_null__SHARED_m_DATA -->
    <g
       id="edge36"
       class="edge">
      <title
         id="title6507">java_util_Logger__null__SHARED_m_Main__SERVER_server_owned__null__SHARED_m_DATA1_null__SHARED_m_DATA-&gt;LogServer__null__SHARED_m_SERVER2_null__SHARED_m_SERVER__null__SHARED_m_DATA1_null__SHARED_m_DATA</title>
      <path
         style="fill:none;stroke:blue;stroke-width:3;"
         d="M541,-30C606,-42 695,-67 660,-116 645,-137 582,-154 535,-164"
         id="path6509" />
      <polygon
         style="fill:blue;stroke:blue;"
         points="534.119,-160.607 525,-166 535.492,-167.471 534.119,-160.607"
         id="polygon6511" />
      <text
         x="705"
         y="-93.4"
         style="font-family:Times New Roman;font-size:14.00;"
         id="text6513"
         text-anchor="middle">logger:Logger</text>
    </g>
    <g
       id="g6"
       transform="matrix(0.0486377,0,0,0.0486377,379.46242,295.82059)">
      <title
         id="title8">Layer 1</title>
      <g
         transform="matrix(0.925703,0,0,0.925703,31.3296,35.7351)"
         id="g1196" />
      <g
         id="g3990"
         transform="matrix(0.41333896,0,0,0.41333896,1016.57,-8575.5802)">
        <path
           style="fill:#ff0000;fill-rule:evenodd;stroke:#000000;stroke-width:51.90468597;stroke-linecap:round;stroke-linejoin:bevel;stroke-miterlimit:4;stroke-dasharray:none"
           inkscape:connector-curvature="0"
           d="M 369.19382,55.168335 C 360.42743,55.59935 352.48703,60.449524 348.09573,68.049011 239.03441,256.96542 129.97305,445.88184 20.911717,634.79828 c -4.618269,7.99432 -4.614269,17.8399 0,25.83697 4.614256,7.99707 13.126057,12.92859 22.358414,12.9311 217.215249,0.042 434.430489,0.084 651.645699,0.12603 9.21076,-0.005 17.7135,-4.91229 22.33326,-12.88067 4.61969,-7.96839 4.64776,-17.79065 0.0756,-25.78656 C 609.17078,446.06671 501.01691,257.10828 392.86298,68.149842 388.03754,59.713807 378.90103,54.697938 369.19382,55.168336 z"
           id="path1825"
           stroke-miterlimit="4" />
        <g
           id="g4359"
           transform="matrix(0.925703,0,0,0.925703,-555.541,27.814)">
          <path
             style="fill:#030303;fill-rule:nonzero;stroke:#000000;stroke-width:0;stroke-linecap:round;stroke-linejoin:round;stroke-miterlimit:4"
             inkscape:connector-curvature="0"
             d="m 1050.0822,571.66534 a 46.868614,46.868614 0 1 1 -93.73717,0 46.868614,46.868614 0 1 1 93.73717,0 z"
             id="path3656"
             stroke-miterlimit="4" />
          <path
             style="fill:#000000;fill-rule:evenodd;stroke-width:95.75;stroke-linecap:round;stroke-miterlimit:4"
             inkscape:connector-curvature="0"
             d="m 998.03125,198.38982 c -26.41602,0.39675 -47.51868,22.11474 -47.15625,48.53126 l 7.5,200.875 c 0.64423,17.25513 3.82696,30.82483 18.73993,39.52881 14.9129,8.70404 28.35717,8.70404 43.27017,0 14.9129,-8.70398 18.0957,-22.27368 18.7399,-39.52881 l 7.5,-200.875 c 0.1775,-12.93576 -4.8872,-25.39284 -14.041,-34.53476 -9.1537,-9.14195 -21.6172,-14.19063 -34.55275,-13.99651 l 0,0 z"
             id="path4355"
             stroke-miterlimit="4" />
        </g>
      </g>
    </g>
    <path
       inkscape:connector-curvature="0"
       d="m 125.36151,-197.11493 -126.33436782,0 0,42.84838 126.33436782,0 0,-42.84838 z"
       style="fill:none;stroke:#aa0000;stroke-width:2.08696866;stroke-linecap:butt;stroke-linejoin:miter;stroke-miterlimit:4;stroke-opacity:1;stroke-dasharray:none"
       id="path38-0-5-34" />
    <path
       inkscape:connector-curvature="0"
       d="m 565.84185,-276.36453 -99.61064,0 0,18.88919 99.61064,0 0,-18.88919 z"
       style="fill:none;stroke:#aa0000;stroke-width:2.08696866;stroke-linecap:butt;stroke-linejoin:miter;stroke-miterlimit:4;stroke-opacity:1;stroke-dasharray:none"
       id="path38-0-5-34-1" />
    <path
       inkscape:connector-curvature="0"
       d="m 567.68494,-230.28917 -99.61066,0 0,17.96769 99.61066,0 0,-17.96769 z"
       style="fill:none;stroke:#aa0000;stroke-width:2.08696866;stroke-linecap:butt;stroke-linejoin:miter;stroke-miterlimit:4;stroke-opacity:1;stroke-dasharray:none"
       id="path38-0-5-34-7" />
    <path
       inkscape:connector-curvature="0"
       d="m 303.67313,-230.28918 -99.61064,0 0,18.88919 99.61064,0 0,-18.88919 z"
       style="fill:none;stroke:#aa0000;stroke-width:2.08696866;stroke-linecap:butt;stroke-linejoin:miter;stroke-miterlimit:4;stroke-opacity:1;stroke-dasharray:none"
       id="path38-0-5-34-1-4" />
    <path
       inkscape:connector-curvature="0"
       d="m 525.75635,-109.57174 -99.61064,0 0,18.889187 99.61064,0 0,-18.889187 z"
       style="fill:none;stroke:#aa0000;stroke-width:2.08696866;stroke-linecap:butt;stroke-linejoin:miter;stroke-miterlimit:4;stroke-opacity:1;stroke-dasharray:none"
       id="path38-0-5-34-1-0" />
  </g>
</svg>
