<?xml version="1.0" encoding="UTF-8" standalone="no"?>
<!-- Generated by Graphviz version 2.20.2 (Wed Jul &#160;9 19:59:08 GMT 2008)
     For user: radu -->

<!-- Title: G Pages: 1 -->

<svg
   xmlns:dc="http://purl.org/dc/elements/1.1/"
   xmlns:cc="http://creativecommons.org/ns#"
   xmlns:rdf="http://www.w3.org/1999/02/22-rdf-syntax-ns#"
   xmlns:svg="http://www.w3.org/2000/svg"
   xmlns="http://www.w3.org/2000/svg"
   xmlns:sodipodi="http://sodipodi.sourceforge.net/DTD/sodipodi-0.dtd"
   xmlns:inkscape="http://www.inkscape.org/namespaces/inkscape"
   width="480pt"
   height="524pt"
   preserveAspectRatio="xMinYMin meet"
   viewBox="0.00 0.00 576.00 655.75"
   id="svg8178"
   version="1.1"
   inkscape:version="0.48.1 "
   sodipodi:docname="runtime-dfptOGraph.svg">
  <metadata
     id="metadata8414">
    <rdf:RDF>
      <cc:Work
         rdf:about="">
        <dc:format>image/svg+xml</dc:format>
        <dc:type
           rdf:resource="http://purl.org/dc/dcmitype/StillImage" />
        <dc:title />
      </cc:Work>
    </rdf:RDF>
  </metadata>
  <defs
     id="defs8412" />
  <sodipodi:namedview
     pagecolor="#ffffff"
     bordercolor="#666666"
     borderopacity="1"
     objecttolerance="10"
     gridtolerance="10"
     guidetolerance="10"
     inkscape:pageopacity="0"
     inkscape:pageshadow="2"
     inkscape:window-width="1600"
     inkscape:window-height="874"
     id="namedview8410"
     showgrid="false"
     inkscape:zoom="1.4292683"
     inkscape:cx="335.86213"
     inkscape:cy="604.07366"
     inkscape:window-x="1596"
     inkscape:window-y="-4"
     inkscape:window-maximized="1"
     inkscape:current-layer="graph0" />
  <g
     id="graph0"
     class="graph"
     transform="scale(0.886154 0.886154) rotate(0) translate(4 736)">
    <title
       id="title8181">G</title>
    <polygon
       style="fill:white;stroke:white;"
       points="-4,4 -4,-736 646,-736 646,4 -4,4"
       id="polygon8183" />
    <!-- DS -->
    <g
       id="node1"
       class="node">
      <title
         id="title8186">DS</title>
      <polygon
         style="fill:none;stroke:black;stroke-dasharray:5,2;"
         points="347,-732 237,-732 237,-696 347,-696 347,-732"
         id="polygon8188" />
      <text
         text-anchor="middle"
         x="292"
         y="-709.9"
         style="font-family:Arial;font-weight:bold;font-size:14.00;"
         id="text8190">null::SHARED</text>
    </g>
    <!-- Main_DS -->
    <g
       id="node2"
       class="node">
      <title
         id="title8193">Main_DS</title>
      <polygon
         style="fill:#ff756c;stroke:black;fill-opacity:1"
         points="238,-658 184,-658 184,-616 238,-616 238,-658"
         id="polygon8195" />
      <text
         text-anchor="middle"
         x="211"
         y="-641.4"
         style="font-family:Arial;font-weight:bold;font-size:14.00;"
         id="text8197">m:</text>
      <text
         text-anchor="middle"
         x="211"
         y="-624.4"
         style="font-family:Arial;font-weight:bold;font-size:14.00;"
         id="text8199">Main</text>
    </g>
    <!-- DS&#45;&gt;Main_DS -->
    <g
       id="edge24"
       class="edge">
      <title
         id="title8202">DS-&gt;Main_DS</title>
      <path
         style="fill:none;stroke:black;stroke-dasharray:5,2;"
         d="M273,-696C263,-687 252,-675 240,-665"
         id="path8204" />
      <polygon
         style="fill:black;stroke:black;"
         points="242.546,-662.596 233,-658 237.596,-667.546 242.546,-662.596"
         id="polygon8206" />
    </g>
    <!-- java_lang_String_DS -->
    <g
       id="node3"
       class="node">
      <title
         id="title8209">java_lang_String_DS</title>
      <polygon
         style="fill:#ffffe0;fill-opacity:1;stroke:#000000;stroke-width:0.68795859999999998"
         points="382,-658 382,-658 256,-658 256,-616 382,-616 "
         id="polygon8211"
         transform="matrix(2.1128828,0,0,1,-284.89802,0)" />
      <text
         x="380.90036"
         y="-642.66327"
         style="font-size:14px;font-weight:bold;text-anchor:middle;font-family:Arial"
         id="text8213">java -Ddir='dummy &amp; echo bad' Java</text>
      <text
         x="507.2276"
         y="-642.66333"
         style="font-size:14px;font-weight:bold;text-anchor:middle;font-family:Arial"
         id="text8416">:</text>
      <text
         x="375.84726"
         y="-624.40002"
         style="font-size:14px;font-weight:bold;text-anchor:middle;font-family:Arial"
         id="text8215">java.lang.String</text>
    </g>
    <!-- DS&#45;&gt;java_lang_String_DS -->
    <g
       id="edge8"
       class="edge">
      <title
         id="title8218">DS-&gt;java_lang_String_DS</title>
      <path
         style="fill:none;stroke:black;stroke-dasharray:5,2;"
         d="M298,-696C301,-688 304,-677 308,-668"
         id="path8220" />
      <polygon
         style="fill:black;stroke:black;"
         points="311.479,-668.584 311,-658 304.774,-666.573 311.479,-668.584"
         id="polygon8222" />
    </g>
    <!-- _null__SHARED_m_DATA -->
    <g
       id="node4"
       class="node">
      <title
         id="title8225">_null__SHARED_m_DATA</title>
      <polygon
         style="fill:none;stroke:black;stroke-dasharray:5,2;"
         points="221,-578 121,-578 121,-542 221,-542 221,-578"
         id="polygon8227" />
      <text
         text-anchor="middle"
         x="171"
         y="-555.9"
         style="font-family:Arial;font-weight:bold;font-size:14.00;"
         id="text8229">Main::DATA</text>
    </g>
    <!-- Main_DS&#45;&gt;_null__SHARED_m_DATA -->
    <g
       id="edge12"
       class="edge">
      <title
         id="title8232">Main_DS-&gt;_null__SHARED_m_DATA</title>
      <path
         style="fill:none;stroke:black;stroke-dasharray:5,2;"
         d="M200,-616C195,-607 190,-596 185,-587"
         id="path8234" />
      <polygon
         style="fill:black;stroke:black;"
         points="187.916,-585.042 180,-578 181.797,-588.441 187.916,-585.042"
         id="polygon8236" />
    </g>
    <!-- _null__SHARED_m_COMMAND -->
    <g
       id="node6"
       class="node">
      <title
         id="title8239">_null__SHARED_m_COMMAND</title>
      <polygon
         style="fill:none;stroke:black;stroke-dasharray:5,2;"
         points="377,-578 239,-578 239,-542 377,-542 377,-578"
         id="polygon8241" />
      <text
         text-anchor="middle"
         x="308"
         y="-555.9"
         style="font-family:Arial;font-weight:bold;font-size:14.00;"
         id="text8243">Main::COMMAND</text>
    </g>
    <!-- Main_DS&#45;&gt;_null__SHARED_m_COMMAND -->
    <g
       id="edge20"
       class="edge">
      <title
         id="title8246">Main_DS-&gt;_null__SHARED_m_COMMAND</title>
      <path
         style="fill:none;stroke:black;stroke-dasharray:5,2;"
         d="M238,-616C250,-606 265,-594 277,-584"
         id="path8248" />
      <polygon
         style="fill:black;stroke:black;"
         points="279.1,-586.8 285,-578 274.9,-581.2 279.1,-586.8"
         id="polygon8250" />
    </g>
    <!-- java_lang_String__null__SHARED_m_DATA -->
    <g
       id="node5"
       class="node">
      <title
         id="title8253">java_lang_String__null__SHARED_m_DATA</title>
      <polygon
         style="fill:lightyellow;stroke:black;"
         points="233,-504 109,-504 109,-462 233,-462 233,-504"
         id="polygon8255" />
      <text
         text-anchor="middle"
         x="171"
         y="-487.4"
         style="font-family:Arial;font-weight:bold;font-size:14.00;"
         id="text8257">ss:</text>
      <text
         text-anchor="middle"
         x="171"
         y="-470.4"
         style="font-family:Arial;font-weight:bold;font-size:14.00;"
         id="text8259">java.lang.String</text>
    </g>
    <!-- _null__SHARED_m_DATA&#45;&gt;java_lang_String__null__SHARED_m_DATA -->
    <g
       id="edge10"
       class="edge">
      <title
         id="title8262">_null__SHARED_m_DATA-&gt;java_lang_String__null__SHARED_m_DATA</title>
      <path
         style="fill:none;stroke:black;stroke-dasharray:5,2;"
         d="M171,-542C171,-534 171,-524 171,-514"
         id="path8264" />
      <polygon
         style="fill:black;stroke:black;"
         points="174.5,-514 171,-504 167.5,-514 174.5,-514"
         id="polygon8266" />
    </g>
    <!-- DirList__null__SHARED_m_COMMAND__null__SHARED_m_DATA -->
    <g
       id="node7"
       class="node">
      <title
         id="title8269">DirList__null__SHARED_m_COMMAND__null__SHARED_m_DATA</title>
      <polygon
         style="fill:lightyellow;stroke:black;"
         points="341,-504 275,-504 275,-462 341,-462 341,-504"
         id="polygon8271" />
      <text
         text-anchor="middle"
         x="308"
         y="-487.4"
         style="font-family:Arial;font-weight:bold;font-size:14.00;"
         id="text8273">dirList:</text>
      <text
         text-anchor="middle"
         x="308"
         y="-470.4"
         style="font-family:Arial;font-weight:bold;font-size:14.00;"
         id="text8275">DirList</text>
    </g>
    <!-- _null__SHARED_m_COMMAND&#45;&gt;DirList__null__SHARED_m_COMMAND__null__SHARED_m_DATA -->
    <g
       id="edge4"
       class="edge">
      <title
         id="title8278">_null__SHARED_m_COMMAND-&gt;DirList__null__SHARED_m_COMMAND__null__SHARED_m_DATA</title>
      <path
         style="fill:none;stroke:black;stroke-dasharray:5,2;"
         d="M308,-542C308,-534 308,-524 308,-514"
         id="path8280" />
      <polygon
         style="fill:black;stroke:black;"
         points="311.5,-514 308,-504 304.5,-514 311.5,-514"
         id="polygon8282" />
    </g>
    <!-- _null__SHARED_m_null__SHARED_m_Main__COMMAND_dirList_owned -->
    <g
       id="node8"
       class="node">
      <title
         id="title8285">_null__SHARED_m_null__SHARED_m_Main__COMMAND_dirList_owned</title>
      <polygon
         style="fill:none;stroke:black;stroke-width:3;stroke-dasharray:5,2;"
         points="118,-424 2.84217e-014,-424 -7.10543e-015,-388 118,-388 118,-424"
         id="polygon8287" />
      <text
         text-anchor="middle"
         x="59"
         y="-401.9"
         style="font-family:Arial;font-weight:bold;font-size:14.00;"
         id="text8289">DirList::owned</text>
    </g>
    <!-- DirList__null__SHARED_m_COMMAND__null__SHARED_m_DATA&#45;&gt;_null__SHARED_m_null__SHARED_m_Main__COMMAND_dirList_owned -->
    <g
       id="edge14"
       class="edge">
      <title
         id="title8292">DirList__null__SHARED_m_COMMAND__null__SHARED_m_DATA-&gt;_null__SHARED_m_null__SHARED_m_Main__COMMAND_dirList_owned</title>
      <path
         style="fill:none;stroke:black;stroke-dasharray:5,2;"
         d="M275,-471C264,-468 253,-465 242,-462 198,-450 184,-457 140,-444 128,-440 115,-434 103,-429"
         id="path8294" />
      <polygon
         style="fill:black;stroke:black;"
         points="104.441,-425.797 94,-424 101.042,-431.916 104.441,-425.797"
         id="polygon8296" />
    </g>
    <!-- java_lang_Runtime__null__SHARED_m_null__SHARED_m_Main__COMMAND_dirList_owned__null__SHARED_m_DATA -->
    <g
       id="node9"
       class="node">
      <title
         id="title8299">java_lang_Runtime__null__SHARED_m_null__SHARED_m_Main__COMMAND_dirList_owned__null__SHARED_m_DATA</title>
      <polygon
         style="fill:#00c800;stroke:black;fill-opacity:1"
         points="240,-350 102,-350 102,-308 240,-308 240,-350"
         id="polygon8301" />
      <text
         text-anchor="middle"
         x="171"
         y="-333.4"
         style="font-family:Arial;font-weight:bold;font-size:14.00;"
         id="text8303">rt:</text>
      <text
         text-anchor="middle"
         x="171"
         y="-316.4"
         style="font-family:Arial;font-weight:bold;font-size:14.00;"
         id="text8305">java.lang.Runtime</text>
    </g>
    <!-- DirList__null__SHARED_m_COMMAND__null__SHARED_m_DATA&#45;&gt;java_lang_Runtime__null__SHARED_m_null__SHARED_m_Main__COMMAND_dirList_owned__null__SHARED_m_DATA -->
    <g
       id="edge28"
       class="edge">
      <title
         id="title8308">DirList__null__SHARED_m_COMMAND__null__SHARED_m_DATA-&gt;java_lang_Runtime__null__SHARED_m_null__SHARED_m_Main__COMMAND_dirList_owned__null__SHARED_m_DATA</title>
      <path
         style="fill:none;stroke:red;stroke-width:3;"
         d="M275,-471C236,-457 175,-433 168,-424 156,-405 157,-380 162,-360"
         id="path8310" />
      <polygon
         style="fill:red;stroke:red;"
         points="165.471,-360.492 164,-350 158.607,-359.119 165.471,-360.492"
         id="polygon8312" />
      <text
         x="134.62292"
         y="-437.40326"
         style="font-size:14px;text-anchor:middle;font-family:Times New Roman"
         id="text8314">java -Ddir='dummy &amp; echo bad' Java</text>
      <text
         x="258.42365"
         y="-437.40326"
         style="font-size:14px;text-anchor:middle;font-family:Times New Roman"
         id="text8418">:String</text>
    </g>
    <!-- _null__SHARED_m_null__SHARED_m_Main__COMMAND_dirList_owned&#45;&gt;java_lang_Runtime__null__SHARED_m_null__SHARED_m_Main__COMMAND_dirList_owned__null__SHARED_m_DATA -->
    <g
       id="edge18"
       class="edge">
      <title
         id="title8317">_null__SHARED_m_null__SHARED_m_Main__COMMAND_dirList_owned-&gt;java_lang_Runtime__null__SHARED_m_null__SHARED_m_Main__COMMAND_dirList_owned__null__SHARED_m_DATA</title>
      <path
         style="fill:none;stroke:black;stroke-dasharray:5,2;"
         d="M85,-388C98,-379 116,-367 132,-356"
         id="path8319" />
      <polygon
         style="fill:black;stroke:black;"
         points="134.1,-358.8 140,-350 129.9,-353.2 134.1,-358.8"
         id="polygon8321" />
    </g>
    <!-- java_lang_Runtime__null__SHARED_m_null__SHARED_m_Main__COMMAND_dirList_owned__null__SHARED_m_DATA&#45;&gt;DirList__null__SHARED_m_COMMAND__null__SHARED_m_DATA -->
    <g
       id="edge30"
       class="edge">
      <title
         id="title8324">java_lang_Runtime__null__SHARED_m_null__SHARED_m_Main__COMMAND_dirList_owned__null__SHARED_m_DATA-&gt;DirList__null__SHARED_m_COMMAND__null__SHARED_m_DATA</title>
      <path
         style="fill:none;stroke:blue;stroke-width:3;"
         d="M236,-350C255,-359 273,-371 286,-388 300,-406 305,-432 307,-452"
         id="path8326" />
      <polygon
         style="fill:blue;stroke:blue;"
         points="303.522,-452.398 308,-462 310.488,-451.701 303.522,-452.398"
         id="polygon8328" />
      <text
         text-anchor="middle"
         x="349"
         y="-401.4"
         style="font-family:Times New Roman;font-size:14.00;"
         id="text8330">process:Process</text>
    </g>
    <!-- _null__SHARED_m_null__SHARED_m_Main__COMMAND_dirList_DirList__owned_rt_PROCESS -->
    <g
       id="node10"
       class="node">
      <title
         id="title8333">_null__SHARED_m_null__SHARED_m_Main__COMMAND_dirList_DirList__owned_rt_PROCESS</title>
      <polygon
         style="fill:none;stroke:black;stroke-dasharray:5,2;"
         points="366,-270 146,-270 146,-234 366,-234 366,-270"
         id="polygon8335" />
      <text
         text-anchor="middle"
         x="256"
         y="-247.9"
         style="font-family:Arial;font-weight:bold;font-size:14.00;"
         id="text8337">java.lang.Runtime::PROCESS</text>
    </g>
    <!-- java_lang_Runtime__null__SHARED_m_null__SHARED_m_Main__COMMAND_dirList_owned__null__SHARED_m_DATA&#45;&gt;_null__SHARED_m_null__SHARED_m_Main__COMMAND_dirList_DirList__owned_rt_PROCESS -->
    <g
       id="edge6"
       class="edge">
      <title
         id="title8340">java_lang_Runtime__null__SHARED_m_null__SHARED_m_Main__COMMAND_dirList_owned__null__SHARED_m_DATA-&gt;_null__SHARED_m_null__SHARED_m_Main__COMMAND_dirList_DirList__owned_rt_PROCESS</title>
      <path
         style="fill:none;stroke:black;stroke-dasharray:5,2;"
         d="M194,-308C205,-298 217,-287 228,-277"
         id="path8342" />
      <polygon
         style="fill:black;stroke:black;"
         points="230.779,-279.219 236,-270 226.169,-273.951 230.779,-279.219"
         id="polygon8344" />
    </g>
    <!-- java_lang_Process__null__SHARED_m_null__SHARED_m_Main__COMMAND_dirList_DirList__owned_rt_PROCESS__null__SHARED_m_DATA -->
    <g
       id="node11"
       class="node">
      <title
         id="title8347">java_lang_Process__null__SHARED_m_null__SHARED_m_Main__COMMAND_dirList_DirList__owned_rt_PROCESS__null__SHARED_m_DATA</title>
      <polygon
         style="fill:lightyellow;stroke:black;"
         points="498,-196 358,-196 358,-154 498,-154 498,-196"
         id="polygon8349" />
      <text
         text-anchor="middle"
         x="428"
         y="-179.4"
         style="font-family:Arial;font-weight:bold;font-size:14.00;"
         id="text8351">process:</text>
      <text
         text-anchor="middle"
         x="428"
         y="-162.4"
         style="font-family:Arial;font-weight:bold;font-size:14.00;"
         id="text8353">java.lang.Process</text>
    </g>
    <!-- _null__SHARED_m_null__SHARED_m_Main__COMMAND_dirList_DirList__owned_rt_PROCESS&#45;&gt;java_lang_Process__null__SHARED_m_null__SHARED_m_Main__COMMAND_dirList_DirList__owned_rt_PROCESS__null__SHARED_m_DATA -->
    <g
       id="edge2"
       class="edge">
      <title
         id="title8356">_null__SHARED_m_null__SHARED_m_Main__COMMAND_dirList_DirList__owned_rt_PROCESS-&gt;java_lang_Process__null__SHARED_m_null__SHARED_m_Main__COMMAND_dirList_DirList__owned_rt_PROCESS__null__SHARED_m_DATA</title>
      <path
         style="fill:none;stroke:black;stroke-dasharray:5,2;"
         d="M296,-234C318,-224 347,-211 372,-200"
         id="path8358" />
      <polygon
         style="fill:black;stroke:black;"
         points="373.283,-203.26 381,-196 370.44,-196.863 373.283,-203.26"
         id="polygon8360" />
    </g>
    <!-- java_lang_Process__null__SHARED_m_null__SHARED_m_Main__COMMAND_dirList_DirList__owned_rt_PROCESS__null__SHARED_m_DATA&#45;&gt;DirList__null__SHARED_m_COMMAND__null__SHARED_m_DATA -->
    <g
       id="edge26"
       class="edge">
      <title
         id="title8363">java_lang_Process__null__SHARED_m_null__SHARED_m_Main__COMMAND_dirList_DirList__owned_rt_PROCESS__null__SHARED_m_DATA-&gt;DirList__null__SHARED_m_COMMAND__null__SHARED_m_DATA</title>
      <path
         style="fill:none;stroke:blue;stroke-width:3;"
         d="M428,-196C428,-212 428,-233 428,-252 428,-406 428,-406 428,-406 428,-443 386,-463 351,-474"
         id="path8365" />
      <polygon
         style="fill:blue;stroke:blue;"
         points="349.573,-470.774 341,-477 351.584,-477.479 349.573,-470.774"
         id="polygon8367" />
      <text
         text-anchor="middle"
         x="497"
         y="-324.4"
         style="font-family:Times New Roman;font-size:14.00;"
         id="text8369">inputStream:InputStream</text>
    </g>
    <!-- _null__SHARED_m_null__SHARED_m_Main__COMMAND_dirList_DirList__owned_rt_java_lang_Runtime__PROCESS_process_STREAMS -->
    <g
       id="node12"
       class="node">
      <title
         id="title8372">_null__SHARED_m_null__SHARED_m_Main__COMMAND_dirList_DirList__owned_rt_java_lang_Runtime__PROCESS_process_STREAMS</title>
      <polygon
         style="fill:none;stroke:black;stroke-dasharray:5,2;"
         points="559,-116 337,-116 337,-80 559,-80 559,-116"
         id="polygon8374" />
      <text
         text-anchor="middle"
         x="448"
         y="-93.9"
         style="font-family:Arial;font-weight:bold;font-size:14.00;"
         id="text8376">java.lang.Process::STREAMS</text>
    </g>
    <!-- java_lang_Process__null__SHARED_m_null__SHARED_m_Main__COMMAND_dirList_DirList__owned_rt_PROCESS__null__SHARED_m_DATA&#45;&gt;_null__SHARED_m_null__SHARED_m_Main__COMMAND_dirList_DirList__owned_rt_java_lang_Runtime__PROCESS_process_STREAMS -->
    <g
       id="edge22"
       class="edge">
      <title
         id="title8379">java_lang_Process__null__SHARED_m_null__SHARED_m_Main__COMMAND_dirList_DirList__owned_rt_PROCESS__null__SHARED_m_DATA-&gt;_null__SHARED_m_null__SHARED_m_Main__COMMAND_dirList_DirList__owned_rt_java_lang_Runtime__PROCESS_process_STREAMS</title>
      <path
         style="fill:none;stroke:black;stroke-dasharray:5,2;"
         d="M433,-154C435,-145 438,-135 440,-126"
         id="path8381" />
      <polygon
         style="fill:black;stroke:black;"
         points="443.479,-126.584 443,-116 436.774,-124.573 443.479,-126.584"
         id="polygon8383" />
    </g>
    <!-- java_io_InputStream__null__SHARED_m_null__SHARED_m_Main__COMMAND_dirList_DirList__owned_rt_java_lang_Runtime__PROCESS_process_STREAMS__null__SHARED_m_DATA -->
    <g
       id="node13"
       class="node">
      <title
         id="title8386">java_io_InputStream__null__SHARED_m_null__SHARED_m_Main__COMMAND_dirList_DirList__owned_rt_java_lang_Runtime__PROCESS_process_STREAMS__null__SHARED_m_DATA</title>
      <polygon
         style="fill:lightyellow;stroke:black;"
         points="626,-42 476,-42 476,-1.42109e-014 626,-0 626,-42"
         id="polygon8388" />
      <text
         text-anchor="middle"
         x="551"
         y="-25.4"
         style="font-family:Arial;font-weight:bold;font-size:14.00;"
         id="text8390">inputStream:</text>
      <text
         text-anchor="middle"
         x="551"
         y="-8.4"
         style="font-family:Arial;font-weight:bold;font-size:14.00;"
         id="text8392">java.io.InputStream</text>
    </g>
    <!-- _null__SHARED_m_null__SHARED_m_Main__COMMAND_dirList_DirList__owned_rt_java_lang_Runtime__PROCESS_process_STREAMS&#45;&gt;java_io_InputStream__null__SHARED_m_null__SHARED_m_Main__COMMAND_dirList_DirList__owned_rt_java_lang_Runtime__PROCESS_process_STREAMS__null__SHARED_m_DATA -->
    <g
       id="edge16"
       class="edge">
      <title
         id="title8395">_null__SHARED_m_null__SHARED_m_Main__COMMAND_dirList_DirList__owned_rt_java_lang_Runtime__PROCESS_process_STREAMS-&gt;java_io_InputStream__null__SHARED_m_null__SHARED_m_Main__COMMAND_dirList_DirList__owned_rt_java_lang_Runtime__PROCESS_process_STREAMS__null__SHARED_m_DATA</title>
      <path
         style="fill:none;stroke:black;stroke-dasharray:5,2;"
         d="M472,-80C485,-71 501,-59 515,-48"
         id="path8397" />
      <polygon
         style="fill:black;stroke:black;"
         points="517.1,-50.8 523,-42 512.9,-45.2 517.1,-50.8"
         id="polygon8399" />
    </g>
    <!-- java_io_InputStream__null__SHARED_m_null__SHARED_m_Main__COMMAND_dirList_DirList__owned_rt_java_lang_Runtime__PROCESS_process_STREAMS__null__SHARED_m_DATA&#45;&gt;DirList__null__SHARED_m_COMMAND__null__SHARED_m_DATA -->
    <g
       id="edge32"
       class="edge">
      <title
         id="title8402">java_io_InputStream__null__SHARED_m_null__SHARED_m_Main__COMMAND_dirList_DirList__owned_rt_java_lang_Runtime__PROCESS_process_STREAMS__null__SHARED_m_DATA-&gt;DirList__null__SHARED_m_COMMAND__null__SHARED_m_DATA</title>
      <path
         style="fill:none;stroke:blue;stroke-width:3;"
         d="M571,-42C582,-57 594,-77 594,-98 594,-406 594,-406 594,-406 594,-455 431,-474 351,-480"
         id="path8404" />
      <polygon
         style="fill:blue;stroke:blue;"
         points="350.602,-476.522 341,-481 351.299,-483.488 350.602,-476.522"
         id="polygon8406" />
      <text
         text-anchor="middle"
         x="618"
         y="-247.4"
         style="font-family:Times New Roman;font-size:14.00;"
         id="text8408">ss:String</text>
    </g>
    <g
       id="g6"
       transform="matrix(0.0562438,0,0,0.05575463,130.15656,41.827535)">
      <title
         id="title8">Layer 1</title>
      <g
         transform="matrix(0.925703,0,0,0.925703,31.3296,35.7351)"
         id="g1196" />
      <g
         id="g3990"
         transform="matrix(0.41333896,0,0,0.41333896,1016.57,-8575.5802)">
        <path
           style="fill:#ff0000;fill-rule:evenodd;stroke:#000000;stroke-width:39.0028801;stroke-linecap:round;stroke-linejoin:bevel;stroke-miterlimit:4;stroke-dasharray:none"
           inkscape:connector-curvature="0"
           d="M 369.19382,55.168335 C 360.42743,55.59935 352.48703,60.449524 348.09573,68.049011 239.03441,256.96542 129.97305,445.88184 20.911717,634.79828 c -4.618269,7.99432 -4.614269,17.8399 0,25.83697 4.614256,7.99707 13.126057,12.92859 22.358414,12.9311 217.215249,0.042 434.430489,0.084 651.645699,0.12603 9.21076,-0.005 17.7135,-4.91229 22.33326,-12.88067 4.61969,-7.96839 4.64776,-17.79065 0.0756,-25.78656 C 609.17078,446.06671 501.01691,257.10828 392.86298,68.149842 388.03754,59.713807 378.90103,54.697938 369.19382,55.168336 z"
           id="path1825"
           stroke-miterlimit="4" />
        <g
           id="g4359"
           transform="matrix(0.925703,0,0,0.925703,-555.541,27.814)">
          <path
             style="fill:#030303;fill-rule:nonzero;stroke:#000000;stroke-width:0;stroke-linecap:round;stroke-linejoin:round;stroke-miterlimit:4"
             inkscape:connector-curvature="0"
             d="m 1050.0822,571.66534 a 46.868614,46.868614 0 1 1 -93.73717,0 46.868614,46.868614 0 1 1 93.73717,0 z"
             id="path3656"
             stroke-miterlimit="4" />
          <path
             style="fill:#000000;fill-rule:evenodd;stroke-width:95.75;stroke-linecap:round;stroke-miterlimit:4"
             inkscape:connector-curvature="0"
             d="m 998.03125,198.38982 c -26.41602,0.39675 -47.51868,22.11474 -47.15625,48.53126 l 7.5,200.875 c 0.64423,17.25513 3.82696,30.82483 18.73993,39.52881 14.9129,8.70404 28.35717,8.70404 43.27017,0 14.9129,-8.70398 18.0957,-22.27368 18.7399,-39.52881 l 7.5,-200.875 c 0.1775,-12.93576 -4.8872,-25.39284 -14.041,-34.53476 -9.1537,-9.14195 -21.6172,-14.19063 -34.55275,-13.99651 l 0,0 z"
             id="path4355"
             stroke-miterlimit="4" />
        </g>
      </g>
    </g>
  </g>
</svg>
