<?xml version="1.0" encoding="UTF-8" standalone="no"?>
<!-- Generated by Graphviz version 2.20.2 (Wed Jul &#160;9 19:59:08 GMT 2008)
     For user: radu -->

<!-- Title: G Pages: 1 -->

<svg
   xmlns:dc="http://purl.org/dc/elements/1.1/"
   xmlns:cc="http://creativecommons.org/ns#"
   xmlns:rdf="http://www.w3.org/1999/02/22-rdf-syntax-ns#"
   xmlns:svg="http://www.w3.org/2000/svg"
   xmlns="http://www.w3.org/2000/svg"
   xmlns:sodipodi="http://sodipodi.sourceforge.net/DTD/sodipodi-0.dtd"
   xmlns:inkscape="http://www.inkscape.org/namespaces/inkscape"
   width="576pt"
   height="389pt"
   viewBox="0.00 0.00 576.00 388.87"
   id="svg3602"
   version="1.1"
   inkscape:version="0.48.1 "
   sodipodi:docname="oog-serialize-color.eps">
  <metadata
     id="metadata3883">
    <rdf:RDF>
      <cc:Work
         rdf:about="">
        <dc:format>image/svg+xml</dc:format>
        <dc:type
           rdf:resource="http://purl.org/dc/dcmitype/StillImage" />
        <dc:title></dc:title>
      </cc:Work>
    </rdf:RDF>
  </metadata>
  <defs
     id="defs3881" />
  <sodipodi:namedview
     pagecolor="#ffffff"
     bordercolor="#666666"
     borderopacity="1"
     objecttolerance="10"
     gridtolerance="10"
     guidetolerance="10"
     inkscape:pageopacity="0"
     inkscape:pageshadow="2"
     inkscape:window-width="1600"
     inkscape:window-height="840"
     id="namedview3879"
     showgrid="false"
     inkscape:zoom="1.2051414"
     inkscape:cx="371.14568"
     inkscape:cy="79.945778"
     inkscape:window-x="-4"
     inkscape:window-y="-4"
     inkscape:window-maximized="1"
     inkscape:current-layer="graph0" />
  <g
     id="graph0"
     class="graph"
     transform="scale(0.663594 0.663594) rotate(0) translate(4 582)">
    <title
       id="title3605">G</title>
    <!-- DS -->
    <g
       id="node1"
       class="node">
      <title
         id="title3610">DS</title>
      <polygon
         style="fill:none;stroke:black;stroke-dasharray:5,2;"
         points="698,-578 588,-578 588,-542 698,-542 698,-578"
         id="polygon3612" />
      <text
         text-anchor="middle"
         x="643"
         y="-555.9"
         style="font-family:Arial;font-weight:bold;font-size:14.00;"
         id="text3614">null::SHARED</text>
    </g>
    <!-- Main_DS -->
    <g
       id="node2"
       class="node">
      <title
         id="title3617">Main_DS</title>
      <polygon
         style="fill:lightyellow;stroke:black;"
         points="550,-504 496,-504 496,-462 550,-462 550,-504"
         id="polygon3619" />
      <text
         text-anchor="middle"
         x="523"
         y="-487.4"
         style="font-family:Arial;font-weight:bold;font-size:14.00;"
         id="text3621">m:</text>
      <text
         text-anchor="middle"
         x="523"
         y="-470.4"
         style="font-family:Arial;font-weight:bold;font-size:14.00;"
         id="text3623">Main</text>
    </g>
    <!-- DS&#45;&gt;Main_DS -->
    <g
       id="edge10"
       class="edge">
      <title
         id="title3626">DS-&gt;Main_DS</title>
      <path
         style="fill:none;stroke:black;stroke-dasharray:5,2;"
         d="M615,-542C598,-531 576,-517 558,-506"
         id="path3628" />
      <polygon
         style="fill:black;stroke:black;"
         points="560.1,-503.2 550,-500 555.9,-508.8 560.1,-503.2"
         id="polygon3630" />
    </g>
    <!-- java_io_IOException_DS -->
    <g
       id="node3"
       class="node">
      <title
         id="title3633">java_io_IOException_DS</title>
      <polygon
         style="fill:lightyellow;stroke:black;"
         points="718,-504 568,-504 568,-462 718,-462 718,-504"
         id="polygon3635" />
      <text
         text-anchor="middle"
         x="643"
         y="-487.4"
         style="font-family:Arial;font-weight:bold;font-size:14.00;"
         id="text3637">ioException:</text>
      <text
         x="643"
         y="-470.39999"
         style="font-size:14px;font-weight:bold;text-anchor:middle;font-family:Arial"
         id="text3639">IOException</text>
    </g>
    <!-- DS&#45;&gt;java_io_IOException_DS -->
    <g
       id="edge26"
       class="edge">
      <title
         id="title3642">DS-&gt;java_io_IOException_DS</title>
      <path
         style="fill:none;stroke:black;stroke-dasharray:5,2;"
         d="M643,-542C643,-534 643,-524 643,-514"
         id="path3644" />
      <polygon
         style="fill:black;stroke:black;"
         points="646.5,-514 643,-504 639.5,-514 646.5,-514"
         id="polygon3646" />
    </g>
    <!-- java_lang_String_DS -->
    <g
       id="node4"
       class="node">
      <title
         id="title3649">java_lang_String_DS</title>
      <polygon
         style="fill:lightyellow;stroke:black;"
         points="860,-504 736,-504 736,-462 860,-462 860,-504"
         id="polygon3651" />
      <text
         text-anchor="middle"
         x="798"
         y="-487.4"
         style="font-family:Arial;font-weight:bold;font-size:14.00;"
         id="text3653">point.ser:</text>
      <text
         x="798"
         y="-470.39999"
         style="font-size:14px;font-weight:bold;text-anchor:middle;font-family:Arial"
         id="text3655">String</text>
    </g>
    <!-- DS&#45;&gt;java_lang_String_DS -->
    <g
       id="edge4"
       class="edge">
      <title
         id="title3658">DS-&gt;java_lang_String_DS</title>
      <path
         style="fill:none;stroke:black;stroke-dasharray:5,2;"
         d="M679,-542C699,-532 725,-520 746,-509"
         id="path3660" />
      <polygon
         style="fill:black;stroke:black;"
         points="747.958,-511.916 755,-504 744.559,-505.797 747.958,-511.916"
         id="polygon3662" />
    </g>
    <!-- _null__SHARED_m_DATA -->
    <g
       id="node5"
       class="node">
      <title
         id="title3665">_null__SHARED_m_DATA</title>
      <polygon
         style="fill:none;stroke:black;stroke-dasharray:5,2;"
         points="573,-424 473,-424 473,-388 573,-388 573,-424"
         id="polygon3667" />
      <text
         x="523"
         y="-401.89999"
         style="font-size:14px;font-weight:bold;text-anchor:middle;font-family:Arial"
         id="text3669">DATA</text>
    </g>
    <!-- Main_DS&#45;&gt;_null__SHARED_m_DATA -->
    <g
       id="edge22"
       class="edge">
      <title
         id="title3672">Main_DS-&gt;_null__SHARED_m_DATA</title>
      <path
         style="fill:none;stroke:black;stroke-dasharray:5,2;"
         d="M523,-462C523,-453 523,-443 523,-434"
         id="path3674" />
      <polygon
         style="fill:black;stroke:black;"
         points="526.5,-434 523,-424 519.5,-434 526.5,-434"
         id="polygon3676" />
    </g>
    <!-- Coordinates__null__SHARED_m_DATA -->
    <g
       id="node6"
       class="node">
      <title
         id="title3679">Coordinates__null__SHARED_m_DATA</title>
      <polygon
         style="fill:lightyellow;stroke:black;"
         points="574,-350 472,-350 472,-308 574,-308 574,-350"
         id="polygon3681" />
      <text
         text-anchor="middle"
         x="523"
         y="-333.4"
         style="font-family:Arial;font-weight:bold;font-size:14.00;"
         id="text3683">coord:</text>
      <text
         text-anchor="middle"
         x="523"
         y="-316.4"
         style="font-family:Arial;font-weight:bold;font-size:14.00;"
         id="text3685">Coordinates</text>
    </g>
    <!-- _null__SHARED_m_DATA&#45;&gt;Coordinates__null__SHARED_m_DATA -->
    <g
       id="edge12"
       class="edge">
      <title
         id="title3688">_null__SHARED_m_DATA-&gt;Coordinates__null__SHARED_m_DATA</title>
      <path
         style="fill:none;stroke:black;stroke-dasharray:5,2;"
         d="M523,-388C523,-380 523,-370 523,-360"
         id="path3690" />
      <polygon
         style="fill:black;stroke:black;"
         points="526.5,-360 523,-350 519.5,-360 526.5,-360"
         id="polygon3692" />
    </g>
    <!-- Coordinates__null__SHARED_m_DATA&#45;&gt;Coordinates__null__SHARED_m_DATA -->
    <g
       id="edge38"
       class="edge">
      <title
         id="title3695">Coordinates__null__SHARED_m_DATA-&gt;Coordinates__null__SHARED_m_DATA</title>
      <path
         style="fill:none;stroke:red;stroke-width:3;"
         d="M574,-336C585,-335 592,-333 592,-329 592,-326 589,-325 584,-324"
         id="path3697" />
      <polygon
         style="fill:red;stroke:red;"
         points="584.492,-320.529 574,-322 583.119,-327.393 584.492,-320.529"
         id="polygon3699" />
      <text
         text-anchor="middle"
         x="628"
         y="-324.4"
         style="font-family:Times New Roman;font-size:14.00;"
         id="text3701">value:Double</text>
    </g>
    <!-- _null__SHARED_m_Main__DATA_coord_STREAMS -->
    <g
       id="node7"
       class="node">
      <title
         id="title3704">_null__SHARED_m_Main__DATA_coord_STREAMS</title>
      <polygon
         style="fill:none;stroke:black;stroke-dasharray:5,2;"
         points="375,-270 193,-270 193,-234 375,-234 375,-270"
         id="polygon3706" />
      <text
         x="284"
         y="-247.89999"
         style="font-size:14px;font-weight:bold;text-anchor:middle;font-family:Arial"
         id="text3708">STREAMS</text>
    </g>
    <!-- Coordinates__null__SHARED_m_DATA&#45;&gt;_null__SHARED_m_Main__DATA_coord_STREAMS -->
    <g
       id="edge8"
       class="edge">
      <title
         id="title3711">Coordinates__null__SHARED_m_DATA-&gt;_null__SHARED_m_Main__DATA_coord_STREAMS</title>
      <path
         style="fill:none;stroke:black;stroke-dasharray:5,2;"
         d="M472,-313C449,-306 422,-298 397,-290 381,-284 364,-278 348,-273"
         id="path3713" />
      <polygon
         style="fill:black;stroke:black;"
         points="348.584,-269.521 338,-270 346.573,-276.226 348.584,-269.521"
         id="polygon3715" />
    </g>
    <!-- java_io_ObjectOutputStream__null__SHARED_m_Main__DATA_coord_STREAMS -->
    <g
       id="node8"
       class="node">
      <title
         id="title3718">java_io_ObjectOutputStream__null__SHARED_m_Main__DATA_coord_STREAMS</title>
      <polygon
         style="fill:#ff756c;fill-opacity:1;stroke:#000000"
         points="204,-196 204,-154 410,-154 410,-196 410,-196 "
         id="polygon3720" />
      <text
         x="307"
         y="-179.39999"
         style="font-size:14px;font-weight:bold;text-anchor:middle;font-family:Arial"
         id="text3722">oout: (-)</text>
      <text
         x="307"
         y="-162.39999"
         style="font-size:14px;font-weight:bold;text-anchor:middle;font-family:Arial"
         id="text3724">ObjectOutputStream</text>
    </g>
    <!-- Coordinates__null__SHARED_m_DATA&#45;&gt;java_io_ObjectOutputStream__null__SHARED_m_Main__DATA_coord_STREAMS -->
    <g
       id="edge30"
       class="edge">
      <title
         id="title3727">Coordinates__null__SHARED_m_DATA-&gt;java_io_ObjectOutputStream__null__SHARED_m_Main__DATA_coord_STREAMS</title>
      <path
         style="fill:none;stroke:red;stroke-width:3;"
         d="M481,-308C461,-298 439,-284 420,-270 403,-256 402,-248 384,-234 372,-223 357,-212 345,-202"
         id="path3729" />
      <polygon
         style="fill:red;stroke:red;"
         points="347.1,-199.2 337,-196 342.9,-204.8 347.1,-199.2"
         id="polygon3731" />
      <text
         x="430.99588"
         y="-247.39999"
         style="font-size:14px;text-anchor:middle;font-family:Times New Roman"
         id="text3733">p:Point</text>
    </g>
    <!-- _null__SHARED_m_Main__DATA_coord_owned -->
    <g
       id="node10"
       class="node">
      <title
         id="title3736">_null__SHARED_m_Main__DATA_coord_owned</title>
      <polygon
         style="fill:none;stroke:black;stroke-width:3;stroke-dasharray:5,2;"
         points="577,-270 469,-270 469,-234 577,-234 577,-270"
         id="polygon3738" />
      <text
         x="523"
         y="-247.89999"
         style="font-size:14px;font-weight:bold;text-anchor:middle;font-family:Arial"
         id="text3740">owned</text>
    </g>
    <!-- Coordinates__null__SHARED_m_DATA&#45;&gt;_null__SHARED_m_Main__DATA_coord_owned -->
    <g
       id="edge6"
       class="edge">
      <title
         id="title3743">Coordinates__null__SHARED_m_DATA-&gt;_null__SHARED_m_Main__DATA_coord_owned</title>
      <path
         style="fill:none;stroke:black;stroke-dasharray:5,2;"
         d="M523,-308C523,-299 523,-289 523,-280"
         id="path3745" />
      <polygon
         style="fill:black;stroke:black;"
         points="526.5,-280 523,-270 519.5,-280 526.5,-280"
         id="polygon3747" />
    </g>
    <!-- java_lang_Double__null__SHARED_m_Main__DATA_coord_owned -->
    <g
       id="node14"
       class="node">
      <title
         id="title3750">java_lang_Double__null__SHARED_m_Main__DATA_coord_owned</title>
      <polygon
         style="fill:lightyellow;stroke:black;"
         points="722,-196 590,-196 590,-154 722,-154 722,-196"
         id="polygon3752" />
      <text
         text-anchor="middle"
         x="656"
         y="-179.4"
         style="font-family:Arial;font-weight:bold;font-size:14.00;"
         id="text3754">value:</text>
      <text
         x="656"
         y="-162.39999"
         style="font-size:14px;font-weight:bold;text-anchor:middle;font-family:Arial"
         id="text3756">Double</text>
    </g>
    <!-- Coordinates__null__SHARED_m_DATA&#45;&gt;java_lang_Double__null__SHARED_m_Main__DATA_coord_owned -->
    <g
       id="edge36"
       class="edge">
      <title
         id="title3759">Coordinates__null__SHARED_m_DATA-&gt;java_lang_Double__null__SHARED_m_Main__DATA_coord_owned</title>
      <path
         style="fill:none;stroke:black;"
         d="M548,-308C560,-297 574,-283 586,-270 604,-249 623,-224 636,-204"
         id="path3761" />
      <polygon
         style="fill:black;stroke:black;"
         points="638.8,-206.1 642,-196 633.2,-201.9 638.8,-206.1"
         id="polygon3763" />
      <text
         text-anchor="middle"
         x="619"
         y="-247.4"
         style="font-family:Times New Roman;font-size:14.00;"
         id="text3765">y</text>
    </g>
    <!-- Coordinates__null__SHARED_m_DATA&#45;&gt;java_lang_Double__null__SHARED_m_Main__DATA_coord_owned -->
    <g
       id="edge40"
       class="edge">
      <title
         id="title3768">Coordinates__null__SHARED_m_DATA-&gt;java_lang_Double__null__SHARED_m_Main__DATA_coord_owned</title>
      <path
         style="fill:none;stroke:black;"
         d="M574,-309C593,-300 612,-287 626,-270 640,-251 648,-226 652,-206"
         id="path3770" />
      <polygon
         style="fill:black;stroke:black;"
         points="655.471,-206.492 654,-196 648.607,-205.119 655.471,-206.492"
         id="polygon3772" />
      <text
         text-anchor="middle"
         x="649"
         y="-247.4"
         style="font-family:Times New Roman;font-size:14.00;"
         id="text3774">x</text>
    </g>
    <!-- _null__SHARED_m_Main__DATA_coord_STREAMS&#45;&gt;java_io_ObjectOutputStream__null__SHARED_m_Main__DATA_coord_STREAMS -->
    <g
       id="edge2"
       class="edge">
      <title
         id="title3777">_null__SHARED_m_Main__DATA_coord_STREAMS-&gt;java_io_ObjectOutputStream__null__SHARED_m_Main__DATA_coord_STREAMS</title>
      <path
         style="fill:none;stroke:black;stroke-dasharray:5,2;"
         d="M289,-234C291,-226 295,-215 298,-206"
         id="path3779" />
      <polygon
         style="fill:black;stroke:black;"
         points="301.479,-206.584 301,-196 294.774,-204.573 301.479,-206.584"
         id="polygon3781" />
    </g>
    <!-- java_io_FileOutputStream__null__SHARED_m_Main__DATA_coord_STREAMS -->
    <g
       id="node9"
       class="node">
      <title
         id="title3784">java_io_FileOutputStream__null__SHARED_m_Main__DATA_coord_STREAMS</title>
      <polygon
         style="fill:lightyellow;stroke:black;"
         points="186,-196 5.68434e-014,-196 0,-154 186,-154 186,-196"
         id="polygon3786" />
      <text
         text-anchor="middle"
         x="93"
         y="-179.4"
         style="font-family:Arial;font-weight:bold;font-size:14.00;"
         id="text3788">fout:</text>
      <text
         x="93"
         y="-162.39999"
         style="font-size:14px;font-weight:bold;text-anchor:middle;font-family:Arial"
         id="text3790">FileOutputStream</text>
    </g>
    <!-- _null__SHARED_m_Main__DATA_coord_STREAMS&#45;&gt;java_io_FileOutputStream__null__SHARED_m_Main__DATA_coord_STREAMS -->
    <g
       id="edge16"
       class="edge">
      <title
         id="title3793">_null__SHARED_m_Main__DATA_coord_STREAMS-&gt;java_io_FileOutputStream__null__SHARED_m_Main__DATA_coord_STREAMS</title>
      <path
         style="fill:none;stroke:black;stroke-dasharray:5,2;"
         d="M239,-234C214,-224 182,-211 154,-200"
         id="path3795" />
      <polygon
         style="fill:black;stroke:black;"
         points="155.56,-196.863 145,-196 152.717,-203.26 155.56,-196.863"
         id="polygon3797" />
    </g>
    <!-- Point__null__SHARED_m_Main__DATA_coord_owned -->
    <g
       id="node11"
       class="node">
      <title
         id="title3800">Point__null__SHARED_m_Main__DATA_coord_owned</title>
      <polygon
         style="fill:lightyellow;stroke:#aa0000;stroke-width:3.61666922999999980;stroke-miterlimit:4;stroke-dasharray:none;stroke-opacity:1"
         points="482,-196 428,-196 428,-154 482,-154 482,-196"
         id="polygon3802" />
      <text
         text-anchor="middle"
         x="455"
         y="-179.4"
         style="font-family:Arial;font-weight:bold;font-size:14.00;"
         id="text3804">p:</text>
      <text
         text-anchor="middle"
         x="455"
         y="-162.4"
         style="font-family:Arial;font-weight:bold;font-size:14.00;"
         id="text3806">Point</text>
    </g>
    <!-- _null__SHARED_m_Main__DATA_coord_owned&#45;&gt;Point__null__SHARED_m_Main__DATA_coord_owned -->
    <g
       id="edge18"
       class="edge">
      <title
         id="title3809">_null__SHARED_m_Main__DATA_coord_owned-&gt;Point__null__SHARED_m_Main__DATA_coord_owned</title>
      <path
         style="fill:none;stroke:black;stroke-dasharray:5,2;"
         d="M507,-234C499,-225 489,-214 481,-204"
         id="path3811" />
      <polygon
         style="fill:black;stroke:black;"
         points="483.219,-201.221 474,-196 477.951,-205.831 483.219,-201.221"
         id="polygon3813" />
    </g>
    <!-- _null__SHARED_m_Main__DATA_coord_owned&#45;&gt;java_lang_Double__null__SHARED_m_Main__DATA_coord_owned -->
    <g
       id="edge14"
       class="edge">
      <title
         id="title3816">_null__SHARED_m_Main__DATA_coord_owned-&gt;java_lang_Double__null__SHARED_m_Main__DATA_coord_owned</title>
      <path
         style="fill:none;stroke:black;stroke-dasharray:5,2;"
         d="M554,-234C570,-225 592,-212 610,-201"
         id="path3818" />
      <polygon
         style="fill:black;stroke:black;"
         points="611.958,-203.916 619,-196 608.559,-197.797 611.958,-203.916"
         id="polygon3820" />
    </g>
    <!-- Point__null__SHARED_m_Main__DATA_coord_owned&#45;&gt;Point__null__SHARED_m_Main__DATA_coord_owned -->
    <g
       id="edge32"
       class="edge">
      <title
         id="title3823">Point__null__SHARED_m_Main__DATA_coord_owned-&gt;Point__null__SHARED_m_Main__DATA_coord_owned</title>
      <path
         style="fill:none;stroke:red;stroke-width:3;"
         d="M482,-182C492,-183 500,-180 500,-175 500,-172 497,-170 492,-168"
         id="path3825" />
      <polygon
         style="fill:red;stroke:red;"
         points="492,-164.5 482,-168 492,-171.5 492,-164.5"
         id="polygon3827" />
      <text
         x="543.00238"
         y="-170.39999"
         style="font-size:14px;text-anchor:middle;font-family:Times New Roman"
         id="text3829">value:Double</text>
    </g>
    <!-- _null__SHARED_m_Main__DATA_coord_Point__owned_p_owned -->
    <g
       id="node12"
       class="node">
      <title
         id="title3832">_null__SHARED_m_Main__DATA_coord_Point__owned_p_owned</title>
      <polygon
         style="fill:none;stroke:black;stroke-width:3;stroke-dasharray:5,2;"
         points="419,-116 311,-116 311,-80 419,-80 419,-116"
         id="polygon3834" />
      <text
         x="365"
         y="-93.900002"
         style="font-size:14px;font-weight:bold;text-anchor:middle;font-family:Arial"
         id="text3836">owned</text>
    </g>
    <!-- Point__null__SHARED_m_Main__DATA_coord_owned&#45;&gt;_null__SHARED_m_Main__DATA_coord_Point__owned_p_owned -->
    <g
       id="edge24"
       class="edge">
      <title
         id="title3839">Point__null__SHARED_m_Main__DATA_coord_owned-&gt;_null__SHARED_m_Main__DATA_coord_Point__owned_p_owned</title>
      <path
         style="fill:none;stroke:black;stroke-dasharray:5,2;"
         d="M430,-154C419,-144 405,-133 394,-123"
         id="path3841" />
      <polygon
         style="fill:black;stroke:black;"
         points="395.831,-119.951 386,-116 391.221,-125.219 395.831,-119.951"
         id="polygon3843" />
    </g>
    <!-- java_lang_Double__null__SHARED_m_Main__DATA_coord_Point__owned_p_owned -->
    <g
       id="node13"
       class="node">
      <title
         id="title3846">java_lang_Double__null__SHARED_m_Main__DATA_coord_Point__owned_p_owned</title>
      <polygon
         style="fill:lightyellow;stroke:#aa0000;stroke-width:3.61666922999999980;stroke-miterlimit:4;stroke-dasharray:none;stroke-opacity:1"
         points="521,-42 389,-42 389,-1.42109e-014 521,-0 521,-42"
         id="polygon3848" />
      <text
         text-anchor="middle"
         x="455"
         y="-25.4"
         style="font-family:Arial;font-weight:bold;font-size:14.00;"
         id="text3850">value:</text>
      <text
         x="455"
         y="-8.3999996"
         style="font-size:14px;font-weight:bold;text-anchor:middle;font-family:Arial"
         id="text3852">Double</text>
    </g>
    <!-- Point__null__SHARED_m_Main__DATA_coord_owned&#45;&gt;java_lang_Double__null__SHARED_m_Main__DATA_coord_Point__owned_p_owned -->
    <g
       id="edge28"
       class="edge">
      <title
         id="title3855">Point__null__SHARED_m_Main__DATA_coord_owned-&gt;java_lang_Double__null__SHARED_m_Main__DATA_coord_Point__owned_p_owned</title>
      <path
         style="fill:none;stroke:black;"
         d="M455,-154C455,-128 455,-83 455,-52"
         id="path3857" />
      <polygon
         style="fill:black;stroke:black;"
         points="458.5,-52 455,-42 451.5,-52 458.5,-52"
         id="polygon3859" />
      <text
         text-anchor="middle"
         x="459"
         y="-93.4"
         style="font-family:Times New Roman;font-size:14.00;"
         id="text3861">x</text>
    </g>
    <!-- Point__null__SHARED_m_Main__DATA_coord_owned&#45;&gt;java_lang_Double__null__SHARED_m_Main__DATA_coord_Point__owned_p_owned -->
    <g
       id="edge34"
       class="edge">
      <title
         id="title3864">Point__null__SHARED_m_Main__DATA_coord_owned-&gt;java_lang_Double__null__SHARED_m_Main__DATA_coord_Point__owned_p_owned</title>
      <path
         style="fill:none;stroke:black;"
         d="M464,-154C466,-148 468,-142 469,-136 475,-102 475,-93 469,-60 469,-57 468,-54 467,-52"
         id="path3866" />
      <polygon
         style="fill:black;stroke:black;"
         points="470.226,-50.5725 464,-42 463.521,-52.584 470.226,-50.5725"
         id="polygon3868" />
      <text
         text-anchor="middle"
         x="479"
         y="-93.4"
         style="font-family:Times New Roman;font-size:14.00;"
         id="text3870">y</text>
    </g>
    <!-- _null__SHARED_m_Main__DATA_coord_Point__owned_p_owned&#45;&gt;java_lang_Double__null__SHARED_m_Main__DATA_coord_Point__owned_p_owned -->
    <g
       id="edge20"
       class="edge">
      <title
         id="title3873">_null__SHARED_m_Main__DATA_coord_Point__owned_p_owned-&gt;java_lang_Double__null__SHARED_m_Main__DATA_coord_Point__owned_p_owned</title>
      <path
         style="fill:none;stroke:black;stroke-dasharray:5,2;"
         d="M386,-80C397,-71 410,-59 422,-49"
         id="path3875" />
      <polygon
         style="fill:black;stroke:black;"
         points="424.779,-51.2191 430,-42 420.169,-45.9511 424.779,-51.2191"
         id="polygon3877" />
    </g>
    <g
       id="g6"
       transform="matrix(0.05619202,0,0,0.05619202,366.45438,201.42395)">
      <title
         id="title8">Layer 1</title>
      <g
         transform="matrix(0.925703,0,0,0.925703,31.3296,35.7351)"
         id="g1196" />
      <g
         id="g3990"
         transform="matrix(0.41333896,0,0,0.41333896,1016.57,-8575.5802)">
        <path
           style="fill:#ff0000;fill-rule:evenodd;stroke:#000000;stroke-width:51.90468597;stroke-linecap:round;stroke-linejoin:bevel;stroke-miterlimit:4;stroke-dasharray:none"
           inkscape:connector-curvature="0"
           d="M 369.19382,55.168335 C 360.42743,55.59935 352.48703,60.449524 348.09573,68.049011 239.03441,256.96542 129.97305,445.88184 20.911717,634.79828 c -4.618269,7.99432 -4.614269,17.8399 0,25.83697 4.614256,7.99707 13.126057,12.92859 22.358414,12.9311 217.215249,0.042 434.430489,0.084 651.645699,0.12603 9.21076,-0.005 17.7135,-4.91229 22.33326,-12.88067 4.61969,-7.96839 4.64776,-17.79065 0.0756,-25.78656 C 609.17078,446.06671 501.01691,257.10828 392.86298,68.149842 388.03754,59.713807 378.90103,54.697938 369.19382,55.168336 z"
           id="path1825"
           stroke-miterlimit="4" />
        <g
           id="g4359"
           transform="matrix(0.925703,0,0,0.925703,-555.541,27.814)">
          <path
             style="fill:#030303;fill-rule:nonzero;stroke:#000000;stroke-width:0;stroke-linecap:round;stroke-linejoin:round;stroke-miterlimit:4"
             inkscape:connector-curvature="0"
             d="m 1050.0822,571.66534 a 46.868614,46.868614 0 1 1 -93.73717,0 46.868614,46.868614 0 1 1 93.73717,0 z"
             id="path3656"
             stroke-miterlimit="4" />
          <path
             style="fill:#000000;fill-rule:evenodd;stroke-width:95.75;stroke-linecap:round;stroke-miterlimit:4"
             inkscape:connector-curvature="0"
             d="m 998.03125,198.38982 c -26.41602,0.39675 -47.51868,22.11474 -47.15625,48.53126 l 7.5,200.875 c 0.64423,17.25513 3.82696,30.82483 18.73993,39.52881 14.9129,8.70404 28.35717,8.70404 43.27017,0 14.9129,-8.70398 18.0957,-22.27368 18.7399,-39.52881 l 7.5,-200.875 c 0.1775,-12.93576 -4.8872,-25.39284 -14.041,-34.53476 -9.1537,-9.14195 -21.6172,-14.19063 -34.55275,-13.99651 l 0,0 z"
             id="path4355"
             stroke-miterlimit="4" />
        </g>
      </g>
    </g>
    <path
       inkscape:connector-curvature="0"
       d="m 583.81354,-184.61181 -80.24994,0 0,17.30734 80.24994,0 0,-17.30734 z"
       style="fill:none;stroke:#aa0000;stroke-width:2.41111302;stroke-linecap:butt;stroke-linejoin:miter;stroke-miterlimit:4;stroke-opacity:1;stroke-dasharray:none"
       id="path38-0-5" />
    <path
       inkscape:connector-curvature="0"
       d="m 455.76943,-259.63763 -49.23927,0 0,17.30734 49.23927,0 0,-17.30734 z"
       style="fill:none;stroke:#aa0000;stroke-width:2.41111279;stroke-linecap:butt;stroke-linejoin:miter;stroke-miterlimit:4;stroke-opacity:1;stroke-dasharray:none"
       id="path38-0-5-4" />
  </g>
</svg>
